<svg width="40" height="34" viewBox="0 0 40 34" fill="none" xmlns="http://www.w3.org/2000/svg">
<path d="M30.4477 0.164062C28.4775 0.164062 26.985 2.37302 26.7462 5.29839H25.0745V8.76108C26.2089 10.0148 28.2387 10.7909 30.4477 10.7909C32.5969 10.7909 34.6268 10.0148 35.8208 8.76108V5.29839H34.1492C33.9701 2.37302 32.4178 0.164062 30.4477 0.164062ZM27.9999 5.29839C28.179 3.08944 29.2536 1.35809 30.4477 1.35809C31.7014 1.35809 32.776 3.08944 32.9551 5.29839H27.9999ZM37.0148 5.35809V18.0148C38.5671 17.7163 39.7014 16.4029 39.7014 14.7909V8.58197C39.7014 6.97003 38.5074 5.5969 37.0148 5.35809ZM5.67156 11.567C7.58201 11.567 9.19394 10.0148 9.19394 8.04466C9.19394 6.13421 7.64171 4.52227 5.67156 4.52227C3.76111 4.52227 2.14917 6.07451 2.14917 8.04466C2.20887 10.0148 3.76111 11.567 5.67156 11.567ZM27.7014 24.8805L21.7313 21.3581C21.2536 21.0596 20.7163 20.9402 20.179 20.9402H13.0745L11.9402 19.2685H16.8357C17.7313 19.2685 18.5074 18.5521 18.5074 17.6566C18.5074 16.7611 17.791 16.0447 16.8357 16.0447H9.67156L8.35812 13.9551C7.4626 12.582 5.61186 12.2835 4.29842 13.179C2.98499 14.0745 2.62678 15.9253 3.5223 17.2387L9.13424 25.4178C9.67156 26.2536 10.6268 26.7312 11.6417 26.7312H19.4626L24.7163 29.8954C26.1492 30.7312 27.9402 30.2536 28.776 28.8805C29.5522 27.5073 29.0745 25.7163 27.7014 24.8805Z" fill="black"/>
<path d="M12.2984 30.0747H6.26855V33.8359H12.2984V30.0747Z" fill="black"/>
<path d="M19.1044 27.9851H11.582C10.2089 27.9851 8.89548 27.3283 8.11936 26.1343L2.50742 17.9552C2.14921 17.4776 1.9701 16.8806 1.8507 16.3433H0.895477C0.537268 16.3433 0.298462 16.5821 0.298462 16.9403V33.2388C0.298462 33.5373 0.537268 33.8358 0.895477 33.8358H5.07458V29.4776C5.07458 29.1791 5.37309 28.8806 5.6716 28.8806H12.8955C13.2537 28.8806 13.4925 29.1791 13.4925 29.4776V33.8358H24.9552C25.3134 33.8358 25.5522 33.5373 25.5522 33.2388V31.5074C25.0149 31.4477 24.4776 31.2686 24.0597 30.9701L19.1044 27.9851Z" fill="black"/>
</svg>
