<svg width="97" height="97" viewBox="0 0 97 97" fill="none" xmlns="http://www.w3.org/2000/svg">
<path d="M0 10C0 4.47715 4.47715 0 10 0H87C92.5229 0 97 4.47715 97 10V87C97 92.5229 92.5229 97 87 97H10C4.47715 97 0 92.5229 0 87V10Z" fill="black"/>
<path d="M68.4062 28.9062H29.5938C27.7298 28.9062 26.2188 30.4173 26.2188 32.2812V72.7812C26.2188 74.6452 27.7298 76.1562 29.5938 76.1562H68.4062C70.2702 76.1562 71.7812 74.6452 71.7812 72.7812V32.2812C71.7812 30.4173 70.2702 28.9062 68.4062 28.9062Z" fill="#D9D8DA"/>
<path d="M36.3438 45.7812H31.2812V50.8438H36.3438V45.7812Z" fill="#57565D"/>
<path d="M36.3438 55.9062H31.2812V60.9688H36.3438V55.9062Z" fill="#57565D"/>
<path d="M36.3438 66.0312H31.2812V71.0938H36.3438V66.0312Z" fill="#57565D"/>
<path d="M56.5938 45.7812H51.5312V50.8438H56.5938V45.7812Z" fill="#57565D"/>
<path d="M56.5938 55.9062H51.5312V60.9688H56.5938V55.9062Z" fill="#57565D"/>
<path d="M46.4688 55.9062H41.4062V60.9688H46.4688V55.9062Z" fill="#57565D"/>
<path d="M46.4688 66.0312H41.4062V71.0938H46.4688V66.0312Z" fill="#57565D"/>
<path d="M56.5938 66.0312H51.5312V71.0938H56.5938V66.0312Z" fill="#57565D"/>
<path d="M66.7188 45.7812H61.6562V50.8438H66.7188V45.7812Z" fill="#57565D"/>
<path d="M66.7188 55.9062H61.6562V60.9688H66.7188V55.9062Z" fill="#57565D"/>
<path d="M71.7812 32.2812V40.7188H26.2188V32.2812C26.2214 31.387 26.5779 30.5301 27.2102 29.8977C27.8426 29.2654 28.6995 28.9089 29.5938 28.9062H68.4062C69.3005 28.9089 70.1574 29.2654 70.7898 29.8977C71.4221 30.5301 71.7786 31.387 71.7812 32.2812Z" fill="#E0DD54"/>
<path d="M36.3438 26.375C36.3438 24.977 35.2105 23.8438 33.8125 23.8438C32.4145 23.8438 31.2812 24.977 31.2812 26.375V31.4375C31.2812 32.8355 32.4145 33.9688 33.8125 33.9688C35.2105 33.9688 36.3438 32.8355 36.3438 31.4375V26.375Z" fill="#57565D"/>
<path d="M66.7188 26.375C66.7188 24.977 65.5855 23.8438 64.1875 23.8438C62.7895 23.8438 61.6562 24.977 61.6562 26.375V31.4375C61.6562 32.8355 62.7895 33.9688 64.1875 33.9688C65.5855 33.9688 66.7188 32.8355 66.7188 31.4375V26.375Z" fill="#57565D"/>
<path d="M46.4688 65.1875H41.4062C41.1825 65.1875 40.9679 65.2764 40.8096 65.4346C40.6514 65.5929 40.5625 65.8075 40.5625 66.0312V71.0938C40.5625 71.3175 40.6514 71.5321 40.8096 71.6904C40.9679 71.8486 41.1825 71.9375 41.4062 71.9375H46.4688C46.6925 71.9375 46.9071 71.8486 47.0654 71.6904C47.2236 71.5321 47.3125 71.3175 47.3125 71.0938V66.0312C47.3125 65.8075 47.2236 65.5929 47.0654 65.4346C46.9071 65.2764 46.6925 65.1875 46.4688 65.1875ZM45.625 70.25H42.25V66.875H45.625V70.25ZM51.5312 71.9375H56.5938C56.8175 71.9375 57.0321 71.8486 57.1904 71.6904C57.3486 71.5321 57.4375 71.3175 57.4375 71.0938V66.0312C57.4375 65.8075 57.3486 65.5929 57.1904 65.4346C57.0321 65.2764 56.8175 65.1875 56.5938 65.1875H51.5312C51.3075 65.1875 51.0929 65.2764 50.9346 65.4346C50.7764 65.5929 50.6875 65.8075 50.6875 66.0312V71.0938C50.6875 71.3175 50.7764 71.5321 50.9346 71.6904C51.0929 71.8486 51.3075 71.9375 51.5312 71.9375ZM52.375 66.875H55.75V70.25H52.375V66.875ZM31.2812 51.6875H36.3438C36.5675 51.6875 36.7821 51.5986 36.9404 51.4404C37.0986 51.2821 37.1875 51.0675 37.1875 50.8438V45.7812C37.1875 45.5575 37.0986 45.3429 36.9404 45.1846C36.7821 45.0264 36.5675 44.9375 36.3438 44.9375H31.2812C31.0575 44.9375 30.8429 45.0264 30.6846 45.1846C30.5264 45.3429 30.4375 45.5575 30.4375 45.7812V50.8438C30.4375 51.0675 30.5264 51.2821 30.6846 51.4404C30.8429 51.5986 31.0575 51.6875 31.2812 51.6875ZM32.125 46.625H35.5V50H32.125V46.625ZM46.4688 55.0625H41.4062C41.1825 55.0625 40.9679 55.1514 40.8096 55.3096C40.6514 55.4679 40.5625 55.6825 40.5625 55.9062V60.9688C40.5625 61.1925 40.6514 61.4071 40.8096 61.5654C40.9679 61.7236 41.1825 61.8125 41.4062 61.8125H46.4688C46.6925 61.8125 46.9071 61.7236 47.0654 61.5654C47.2236 61.4071 47.3125 61.1925 47.3125 60.9688V55.9062C47.3125 55.6825 47.2236 55.4679 47.0654 55.3096C46.9071 55.1514 46.6925 55.0625 46.4688 55.0625ZM45.625 60.125H42.25V56.75H45.625V60.125ZM68.4062 28.0625H67.5625V26.375C67.5625 25.4799 67.2069 24.6214 66.574 23.9885C65.9411 23.3556 65.0826 23 64.1875 23C63.2924 23 62.434 23.3556 61.801 23.9885C61.1681 24.6214 60.8125 25.4799 60.8125 26.375V28.0625H37.1875V26.375C37.1875 25.4799 36.8319 24.6214 36.199 23.9885C35.5661 23.3556 34.7076 23 33.8125 23C32.9174 23 32.0589 23.3556 31.426 23.9885C30.7931 24.6214 30.4375 25.4799 30.4375 26.375V28.0625H29.5938C28.4749 28.0625 27.4018 28.507 26.6106 29.2981C25.8195 30.0893 25.375 31.1624 25.375 32.2812V72.7812C25.375 73.9001 25.8195 74.9732 26.6106 75.7644C27.4018 76.5555 28.4749 77 29.5938 77H68.4062C69.5251 77 70.5982 76.5555 71.3894 75.7644C72.1805 74.9732 72.625 73.9001 72.625 72.7812V32.2812C72.625 31.1624 72.1805 30.0893 71.3894 29.2981C70.5982 28.507 69.5251 28.0625 68.4062 28.0625ZM62.5 26.375C62.5 25.9274 62.6778 25.4982 62.9943 25.1818C63.3107 24.8653 63.7399 24.6875 64.1875 24.6875C64.6351 24.6875 65.0643 24.8653 65.3807 25.1818C65.6972 25.4982 65.875 25.9274 65.875 26.375V31.4375C65.875 31.8851 65.6972 32.3143 65.3807 32.6307C65.0643 32.9472 64.6351 33.125 64.1875 33.125C63.7399 33.125 63.3107 32.9472 62.9943 32.6307C62.6778 32.3143 62.5 31.8851 62.5 31.4375V26.375ZM32.125 26.375C32.125 25.9274 32.3028 25.4982 32.6193 25.1818C32.9357 24.8653 33.3649 24.6875 33.8125 24.6875C34.2601 24.6875 34.6893 24.8653 35.0057 25.1818C35.3222 25.4982 35.5 25.9274 35.5 26.375V31.4375C35.5 31.8851 35.3222 32.3143 35.0057 32.6307C34.6893 32.9472 34.2601 33.125 33.8125 33.125C33.3649 33.125 32.9357 32.9472 32.6193 32.6307C32.3028 32.3143 32.125 31.8851 32.125 31.4375V26.375ZM70.9375 72.7812C70.9375 73.4526 70.6708 74.0964 70.1961 74.5711C69.7214 75.0458 69.0776 75.3125 68.4062 75.3125H29.5938C28.9224 75.3125 28.2786 75.0458 27.8039 74.5711C27.3292 74.0964 27.0625 73.4526 27.0625 72.7812V41.5625H70.9375V72.7812ZM70.9375 39.875H27.0625V32.2812C27.0625 31.6099 27.3292 30.9661 27.8039 30.4914C28.2786 30.0167 28.9224 29.75 29.5938 29.75H30.4375V31.4375C30.4375 32.3326 30.7931 33.1911 31.426 33.824C32.0589 34.4569 32.9174 34.8125 33.8125 34.8125C34.7076 34.8125 35.5661 34.4569 36.199 33.824C36.8319 33.1911 37.1875 32.3326 37.1875 31.4375V29.75H60.8125V31.4375C60.8125 32.3326 61.1681 33.1911 61.801 33.824C62.434 34.4569 63.2924 34.8125 64.1875 34.8125C65.0826 34.8125 65.9411 34.4569 66.574 33.824C67.2069 33.1911 67.5625 32.3326 67.5625 31.4375V29.75H68.4062C69.0776 29.75 69.7214 30.0167 70.1961 30.4914C70.6708 30.9661 70.9375 31.6099 70.9375 32.2812V39.875ZM61.6562 51.6875H66.7188C66.9425 51.6875 67.1571 51.5986 67.3154 51.4404C67.4736 51.2821 67.5625 51.0675 67.5625 50.8438V45.7812C67.5625 45.5575 67.4736 45.3429 67.3154 45.1846C67.1571 45.0264 66.9425 44.9375 66.7188 44.9375H61.6562C61.4325 44.9375 61.2179 45.0264 61.0596 45.1846C60.9014 45.3429 60.8125 45.5575 60.8125 45.7812V50.8438C60.8125 51.0675 60.9014 51.2821 61.0596 51.4404C61.2179 51.5986 61.4325 51.6875 61.6562 51.6875ZM62.5 46.625H65.875V50H62.5V46.625ZM61.6562 61.8125H66.7188C66.9425 61.8125 67.1571 61.7236 67.3154 61.5654C67.4736 61.4071 67.5625 61.1925 67.5625 60.9688V55.9062C67.5625 55.6825 67.4736 55.4679 67.3154 55.3096C67.1571 55.1514 66.9425 55.0625 66.7188 55.0625H61.6562C61.4325 55.0625 61.2179 55.1514 61.0596 55.3096C60.9014 55.4679 60.8125 55.6825 60.8125 55.9062V60.9688C60.8125 61.1925 60.9014 61.4071 61.0596 61.5654C61.2179 61.7236 61.4325 61.8125 61.6562 61.8125ZM62.5 56.75H65.875V60.125H62.5V56.75ZM51.5312 51.6875H56.5938C56.8175 51.6875 57.0321 51.5986 57.1904 51.4404C57.3486 51.2821 57.4375 51.0675 57.4375 50.8438V45.7812C57.4375 45.5575 57.3486 45.3429 57.1904 45.1846C57.0321 45.0264 56.8175 44.9375 56.5938 44.9375H51.5312C51.3075 44.9375 51.0929 45.0264 50.9346 45.1846C50.7764 45.3429 50.6875 45.5575 50.6875 45.7812V50.8438C50.6875 51.0675 50.7764 51.2821 50.9346 51.4404C51.0929 51.5986 51.3075 51.6875 51.5312 51.6875ZM52.375 46.625H55.75V50H52.375V46.625ZM42.25 51.1019C42.3162 51.234 42.4158 51.3463 42.539 51.4277C42.6622 51.5092 42.8046 51.5568 42.952 51.566H43.0043C43.1433 51.5659 43.28 51.5315 43.4025 51.4659C43.525 51.4002 43.6293 51.3054 43.7063 51.1897L47.0813 46.1272C47.1428 46.035 47.1855 45.9316 47.2071 45.8229C47.2286 45.7142 47.2285 45.6023 47.2068 45.4936C47.1851 45.385 47.1422 45.2816 47.0806 45.1895C47.019 45.0975 46.9398 45.0184 46.8476 44.9569C46.7554 44.8954 46.652 44.8527 46.5433 44.8311C46.4346 44.8096 46.3227 44.8097 46.2141 44.8314C46.1054 44.8531 46.002 44.896 45.91 44.9576C45.8179 45.0193 45.7388 45.0984 45.6773 45.1906L43.1089 49.0432L42.0812 46.9726C42.0317 46.8735 41.9631 46.785 41.8794 46.7123C41.7957 46.6397 41.6985 46.5842 41.5934 46.5491C41.4882 46.514 41.3772 46.5 41.2666 46.5078C41.1561 46.5156 41.0481 46.5451 40.9489 46.5946C40.8498 46.6442 40.7613 46.7127 40.6887 46.7964C40.616 46.8801 40.5605 46.9773 40.5254 47.0825C40.4903 47.1876 40.4763 47.2987 40.4841 47.4092C40.4919 47.5198 40.5214 47.6278 40.5709 47.7269L42.25 51.1019ZM31.2812 61.8125H36.3438C36.5675 61.8125 36.7821 61.7236 36.9404 61.5654C37.0986 61.4071 37.1875 61.1925 37.1875 60.9688V55.9062C37.1875 55.6825 37.0986 55.4679 36.9404 55.3096C36.7821 55.1514 36.5675 55.0625 36.3438 55.0625H31.2812C31.0575 55.0625 30.8429 55.1514 30.6846 55.3096C30.5264 55.4679 30.4375 55.6825 30.4375 55.9062V60.9688C30.4375 61.1925 30.5264 61.4071 30.6846 61.5654C30.8429 61.7236 31.0575 61.8125 31.2812 61.8125ZM32.125 56.75H35.5V60.125H32.125V56.75ZM51.5312 61.8125H56.5938C56.8175 61.8125 57.0321 61.7236 57.1904 61.5654C57.3486 61.4071 57.4375 61.1925 57.4375 60.9688V55.9062C57.4375 55.6825 57.3486 55.4679 57.1904 55.3096C57.0321 55.1514 56.8175 55.0625 56.5938 55.0625H51.5312C51.3075 55.0625 51.0929 55.1514 50.9346 55.3096C50.7764 55.4679 50.6875 55.6825 50.6875 55.9062V60.9688C50.6875 61.1925 50.7764 61.4071 50.9346 61.5654C51.0929 61.7236 51.3075 61.8125 51.5312 61.8125ZM52.375 56.75H55.75V60.125H52.375V56.75ZM31.2812 71.9375H36.3438C36.5675 71.9375 36.7821 71.8486 36.9404 71.6904C37.0986 71.5321 37.1875 71.3175 37.1875 71.0938V66.0312C37.1875 65.8075 37.0986 65.5929 36.9404 65.4346C36.7821 65.2764 36.5675 65.1875 36.3438 65.1875H31.2812C31.0575 65.1875 30.8429 65.2764 30.6846 65.4346C30.5264 65.5929 30.4375 65.8075 30.4375 66.0312V71.0938C30.4375 71.3175 30.5264 71.5321 30.6846 71.6904C30.8429 71.8486 31.0575 71.9375 31.2812 71.9375ZM32.125 66.875H35.5V70.25H32.125V66.875ZM62.5 71.3519C62.5662 71.484 62.6658 71.5963 62.789 71.6777C62.9122 71.7592 63.0546 71.8068 63.202 71.816H63.2543C63.3933 71.8159 63.53 71.7815 63.6525 71.7159C63.775 71.6503 63.8793 71.5554 63.9563 71.4397L67.3313 66.3772C67.3928 66.285 67.4355 66.1816 67.4571 66.0729C67.4786 65.9642 67.4785 65.8523 67.4568 65.7436C67.4351 65.635 67.3922 65.5316 67.3306 65.4395C67.269 65.3475 67.1898 65.2684 67.0976 65.2069C67.0054 65.1454 66.902 65.1027 66.7933 65.0811C66.6846 65.0596 66.5727 65.0597 66.4641 65.0814C66.3554 65.1031 66.2521 65.146 66.16 65.2076C66.0679 65.2693 65.9888 65.3484 65.9273 65.4406L63.3589 69.2932L62.3312 67.2226C62.2312 67.0223 62.0557 66.87 61.8434 66.7991C61.631 66.7282 61.3992 66.7446 61.1989 66.8446C60.9987 66.9447 60.8463 67.1201 60.7754 67.3325C60.7045 67.5448 60.7209 67.7767 60.8209 67.9769L62.5 71.3519Z" fill="black"/>
</svg>
