<svg width="55" height="55" viewBox="0 0 55 55" fill="none" xmlns="http://www.w3.org/2000/svg">
<path fill-rule="evenodd" clip-rule="evenodd" d="M27.5 55C42.6878 55 55 42.6878 55 27.5C55 12.3122 42.6878 0 27.5 0C12.3122 0 0 12.3122 0 27.5C0 42.6878 12.3122 55 27.5 55Z" fill="black"/>
<path fill-rule="evenodd" clip-rule="evenodd" d="M36.4008 26.8981C35.8514 22.4301 32.0068 19 27.4348 19C22.7429 19 18.8678 22.5539 18.441 27.1624C16.3955 27.8571 15 29.7657 15 31.9375C15 34.7286 17.2818 37 20.087 37H35.913C38.7182 37 41 34.7286 41 31.9375C41 29.3101 38.9782 27.1433 36.4008 26.8981ZM32.927 30.3906C32.3477 32.626 30.3219 34.1875 28 34.1875C26.674 34.1875 25.4164 33.6632 24.4798 32.7711L22.9136 34.1875L23.0945 30.43L26.8696 30.61L25.3203 32.0112C26.0427 32.6727 26.995 33.0625 28 33.0625C29.8059 33.0625 31.3817 31.8481 31.8316 30.1094C31.9096 29.8084 32.2216 29.629 32.52 29.7049C32.8224 29.7826 33.0044 30.0891 32.927 30.3906ZM29.1304 27.64L32.9061 27.82L33.0864 24.0625L31.5207 25.4783C30.5774 24.5766 29.3181 24.0625 28 24.0625C25.6775 24.0625 23.6512 25.624 23.073 27.8599C22.9956 28.1603 23.1776 28.4674 23.48 28.5445C23.5269 28.5569 23.5743 28.5625 23.6213 28.5625C23.8728 28.5625 24.1023 28.3943 24.1684 28.1406C24.6177 26.4019 26.1936 25.1875 28 25.1875C28.9999 25.1875 29.9573 25.5655 30.6848 26.2343L29.1304 27.64Z" fill="#FFFD5F"/>
</svg>
