<svg width="55" height="55" viewBox="0 0 55 55" fill="none" xmlns="http://www.w3.org/2000/svg">
<path fill-rule="evenodd" clip-rule="evenodd" d="M27.5 55C42.6878 55 55 42.6878 55 27.5C55 12.3122 42.6878 0 27.5 0C12.3122 0 0 12.3122 0 27.5C0 42.6878 12.3122 55 27.5 55Z" fill="black"/>
<path d="M34.3535 30.6298C33.4491 30.6302 32.5775 30.9724 31.9097 31.5893L28.4331 28.5754V26C28.1303 26.0313 27.8251 26.0313 27.5223 26V28.5754L24.0456 31.5893C22.6256 30.2952 20.4558 30.3401 19.0893 31.6918C17.7228 33.0436 17.6303 35.2368 18.8779 36.7014C20.1255 38.166 22.2836 38.3978 23.8075 37.2308C25.3314 36.0638 25.6962 33.8999 24.6408 32.2881L27.9777 29.3939L31.3145 32.2867C30.3957 33.6964 30.5417 35.5573 31.6688 36.8028C32.7959 38.0483 34.6156 38.3598 36.0851 37.5586C37.5545 36.7575 38.2977 35.0487 37.8886 33.4117C37.4795 31.7748 36.0228 30.6284 34.3535 30.6298Z" fill="#FFFD5F"/>
<path fill-rule="evenodd" clip-rule="evenodd" d="M25 21.5C25 23.433 26.567 25 28.5 25C30.4321 24.9978 31.9978 23.4321 32 21.5C32 19.567 30.433 18 28.5 18C26.567 18 25 19.567 25 21.5ZM25.875 21.5C25.875 20.0503 27.0503 18.875 28.5 18.875C29.9491 18.8764 31.1236 20.0509 31.125 21.5C31.125 22.9497 29.9497 24.125 28.5 24.125C27.0503 24.125 25.875 22.9497 25.875 21.5Z" fill="#FFFD5F"/>
</svg>
