<svg width="82" height="78" viewBox="0 0 82 78" fill="none" xmlns="http://www.w3.org/2000/svg">
<path d="M57.758 56V58H49.698V56H52.718V28H54.738V56H57.758Z" fill="black"/>
<path d="M58.738 62H48.718L50.108 59H57.348L58.738 62Z" fill="black"/>
<path d="M58.738 62H48.718L50.108 59H57.348L58.738 62Z" fill="black"/>
<path d="M41.799 23.93C44.2649 23.93 46.264 21.931 46.264 19.465C46.264 16.999 44.2649 15 41.799 15C39.333 15 37.334 16.999 37.334 19.465C37.334 21.931 39.333 23.93 41.799 23.93Z" fill="black"/>
<path d="M44.9579 26.2C44.4867 26.1214 38.9267 26.154 38.6279 26.2C33.3006 25.1332 28.8602 33.5231 27.3379 39.19C27.0779 40.16 27.5079 41.14 28.308 41.65L30.028 41.92C30.788 41.73 31.4379 41.17 31.6479 40.35C32.528 37.12 34.588 32.63 36.778 31.14V39L33.528 51H36.778V60.77C36.778 62 37.768 63 39.008 63C40.238 63 41.238 62 41.238 60.77V51H42.358V60.77C42.358 62 43.358 63 44.588 63C45.8181 63 46.8181 62 46.8181 60.77V51H50.0581L46.8181 39V31.14C48.838 32.5199 50.748 36.45 51.718 39.59V29.74C49.1928 26.5952 46.4408 25.9304 44.9579 26.2Z" fill="black"/>
</svg>
