<svg width="97" height="97" viewBox="0 0 97 97" fill="none" xmlns="http://www.w3.org/2000/svg">
<path d="M0 10C0 4.47715 4.47715 0 10 0H87C92.5229 0 97 4.47715 97 10V87C97 92.5229 92.5229 97 87 97H10C4.47715 97 0 92.5229 0 87V10Z" fill="black"/>
<path d="M26 59V39C26 37.6739 26.5268 36.4021 27.4645 35.4645C28.4021 34.5268 29.6739 34 31 34H71C72.3261 34 73.5979 34.5268 74.5355 35.4645C75.4732 36.4021 76 37.6739 76 39V59" fill="#FFFF00" fill-opacity="0.69"/>
<path d="M81 45.5V65.5C81 66.163 80.7366 66.7989 80.2678 67.2678C79.7989 67.7366 79.163 68 78.5 68H23.5C22.837 68 22.2011 67.7366 21.7322 67.2678C21.2634 66.7989 21 66.163 21 65.5V45.5C21 44.837 21.2634 44.2011 21.7322 43.7322C22.2011 43.2634 22.837 43 23.5 43H28.5C28.8283 43 29.1534 43.0647 29.4567 43.1903C29.76 43.3159 30.0356 43.5001 30.2678 43.7322C30.4999 43.9644 30.6841 44.24 30.8097 44.5433C30.9353 44.8466 31 45.1717 31 45.5V58H71V45.5C71 44.837 71.2634 44.2011 71.7322 43.7322C72.2011 43.2634 72.837 43 73.5 43H78.5C79.163 43 79.7989 43.2634 80.2678 43.7322C80.7366 44.2011 81 44.837 81 45.5Z" fill="#FFFF00" fill-opacity="0.69"/>
<path d="M36 50H66C67.3261 50 68.5979 50.5268 69.5355 51.4645C70.4732 52.4021 71 53.6739 71 55V58H31V55C31 53.6739 31.5268 52.4021 32.4645 51.4645C33.4021 50.5268 34.6739 50 36 50Z" fill="#A0815C"/>
<path d="M27.875 72H25V68H29L27.875 72Z" fill="#A0815C"/>
<path d="M74.125 72H77V68H73L74.125 72Z" fill="#A0815C"/>
<path d="M78.5 42H77V39C76.9983 37.4092 76.3656 35.8841 75.2408 34.7592C74.1159 33.6344 72.5908 33.0017 71 33H31C29.4092 33.0017 27.8841 33.6344 26.7592 34.7592C25.6344 35.8841 25.0017 37.4092 25 39V42H23.5C22.5721 42.001 21.6824 42.3701 21.0263 43.0263C20.3701 43.6824 20.001 44.5721 20 45.5V65.5C20.001 66.4279 20.3701 67.3176 21.0263 67.9737C21.6824 68.6299 22.5721 68.999 23.5 69H24V72C24 72.2652 24.1054 72.5196 24.2929 72.7071C24.4804 72.8946 24.7348 73 25 73H27.875C28.0929 73 28.3049 72.9288 28.4786 72.7973C28.6524 72.6657 28.7784 72.481 28.8375 72.2713L29.7575 69H72.2425L73.1625 72.2713C73.2216 72.481 73.3476 72.6657 73.5214 72.7973C73.6951 72.9288 73.9071 73 74.125 73H77C77.2652 73 77.5196 72.8946 77.7071 72.7071C77.8946 72.5196 78 72.2652 78 72V69H78.5C79.4279 68.999 80.3176 68.6299 80.9737 67.9737C81.6299 67.3176 81.999 66.4279 82 65.5V45.5C81.999 44.5721 81.6299 43.6824 80.9737 43.0263C80.3176 42.3701 79.4279 42.001 78.5 42ZM27 39C27.0012 37.9395 27.423 36.9228 28.1729 36.1729C28.9228 35.423 29.9395 35.0012 31 35H71C72.0605 35.0012 73.0772 35.423 73.8271 36.1729C74.577 36.9228 74.9988 37.9395 75 39V42H73.5C72.5721 42.001 71.6824 42.3701 71.0263 43.0263C70.3701 43.6824 70.001 44.5721 70 45.5V50.5325C68.9019 49.5449 67.4769 48.9989 66 49H36C34.5231 48.9989 33.0981 49.5449 32 50.5325V45.5C31.999 44.5721 31.6299 43.6824 30.9737 43.0263C30.3176 42.3701 29.4279 42.001 28.5 42H27V39ZM70 55V57H32V55C32.0012 53.9395 32.423 52.9228 33.1729 52.1729C33.9228 51.423 34.9395 51.0012 36 51H66C67.0605 51.0012 68.0772 51.423 68.8271 52.1729C69.577 52.9228 69.9988 53.9395 70 55ZM27.1175 71H26V69H27.68L27.1175 71ZM76 71H74.8825L74.32 69H76V71ZM80 65.5C79.9997 65.8977 79.8415 66.2791 79.5603 66.5603C79.2791 66.8415 78.8977 66.9997 78.5 67H23.5C23.1023 66.9997 22.7209 66.8415 22.4397 66.5603C22.1585 66.2791 22.0003 65.8977 22 65.5V45.5C22.0003 45.1023 22.1585 44.7209 22.4397 44.4397C22.7209 44.1585 23.1023 44.0003 23.5 44H28.5C28.8977 44.0003 29.2791 44.1585 29.5603 44.4397C29.8415 44.7209 29.9997 45.1023 30 45.5V58C30 58.2652 30.1054 58.5196 30.2929 58.7071C30.4804 58.8946 30.7348 59 31 59H71C71.2652 59 71.5196 58.8946 71.7071 58.7071C71.8946 58.5196 72 58.2652 72 58V45.5C72.0003 45.1023 72.1585 44.7209 72.4397 44.4397C72.7209 44.1585 73.1023 44.0003 73.5 44H78.5C78.8977 44.0003 79.2791 44.1585 79.5603 44.4397C79.8415 44.7209 79.9997 45.1023 80 45.5V65.5Z" fill="black"/>
<path fill-rule="evenodd" clip-rule="evenodd" d="M48.5 25C44.9101 25 42 22.0899 42 18.5C42.004 14.9118 44.9118 12.004 48.5 12C52.0899 12 55 14.9101 55 18.5C55 22.0899 52.0899 25 48.5 25ZM52.622 16.844C52.9039 16.562 52.9039 16.1048 52.622 15.8228C52.3399 15.5408 51.8828 15.5408 51.6007 15.8228L47.0558 20.3677L45.3997 18.7117C45.1164 18.438 44.6659 18.4419 44.3873 18.7205C44.1087 18.9991 44.1048 19.4495 44.3785 19.7329L46.5452 21.8996C46.8272 22.1815 47.2844 22.1815 47.5664 21.8996L52.622 16.844Z" fill="white"/>
</svg>
