<svg width="27" height="32" viewBox="0 0 27 32" fill="none" xmlns="http://www.w3.org/2000/svg">
<path d="M7.87593 0.835938L0.679199 8.03267H7.87593V0.835938Z" fill="black"/>
<path d="M22.7559 24.271C20.9033 24.7093 18.8097 24.2085 17.3257 22.72C15.0595 20.4473 15.0628 16.7575 17.3257 14.4946C19.4235 12.3905 22.6629 12.2741 24.8881 13.9265V0.646484H8.52893V8.68567H0.489746V31.3534H24.8881V25.9297L24.6497 26.1681L22.7559 24.271ZM17.1624 5.24733H17.9265L18.8669 6.57958L19.7975 5.24733H20.5681L19.2848 7.01383L20.6497 8.88485H19.8857L18.8669 7.46118L17.8449 8.88485H17.0808L18.4391 7.02036L17.1624 5.24733ZM15.6244 5.24733L17.0546 8.88488H16.3297L16.062 8.18281H14.3901L14.1256 8.88485H13.3975L14.8277 5.2473L15.6244 5.24733ZM10.7461 5.24733H13.5902V5.80897H12.4865V8.88488H11.8497V5.80897H10.7461V5.24733ZM10.5297 12.0245H20.9258V12.6776H10.5297V12.0245ZM4.45125 12.0245H8.23936V12.6776H4.45125V12.0245ZM4.45125 15.6721H15.502V16.3252H4.45125V15.6721ZM15.1836 19.3198V19.9728H9.74669V19.3198H15.1836ZM4.45125 19.3198H7.59332V19.9728H4.45125V19.3198ZM4.45125 22.9674H15.8843V23.6205H4.45125V22.9674ZM7.24096 27.2681H4.45125V26.6151H7.24096V27.2681ZM20.9258 27.2681H9.2376V26.6151H20.9257L20.9258 27.2681Z" fill="black"/>
<path d="M15.2261 5.8877L14.573 7.62157H15.8824L15.2261 5.8877Z" fill="black"/>
<path d="M17.7862 14.9555C15.7422 16.9995 15.7977 20.2616 17.7862 22.26C19.6181 24.0918 22.5242 24.2714 24.5618 22.7171C27.303 20.6476 27.2447 16.5105 24.5618 14.4983C22.5405 12.9538 19.6344 13.1073 17.7862 14.9555ZM23.5789 21.4142C22.1867 22.4712 20.2024 22.3676 18.9389 21.104C17.5675 19.726 17.5675 17.486 18.9389 16.1114C20.2026 14.8477 22.1942 14.7448 23.5691 15.7979C25.4303 17.1938 25.4245 20.0187 23.5789 21.4142Z" fill="black"/>
</svg>
