<svg width="97" height="97" viewBox="0 0 97 97" fill="none" xmlns="http://www.w3.org/2000/svg">
<path d="M0 10C0 4.47715 4.47715 0 10 0H87C92.5229 0 97 4.47715 97 10V87C97 92.5229 92.5229 97 87 97H10C4.47715 97 0 92.5229 0 87V10Z" fill="black"/>
<path d="M53.9276 22.7382V66.5859C53.9276 68.4009 52.5402 69.8725 50.8289 69.8725H30.9364C29.2252 69.8725 27.8377 68.4009 27.8377 66.5859V22.7382C27.8377 20.9222 29.2252 19.4505 30.9364 19.4505H50.8289C52.5402 19.4505 53.9276 20.9222 53.9276 22.7382Z" fill="#FFFD5F"/>
<path d="M50.8288 70.2504H30.9364C29.0194 70.2504 27.4597 68.6065 27.4597 66.586V22.7382C27.4597 20.7171 29.0194 19.0726 30.9364 19.0726H50.8288C52.7458 19.0726 54.3055 20.7171 54.3055 22.7382V66.586C54.3055 68.6065 52.7458 70.2504 50.8288 70.2504ZM30.9364 19.8284C29.4361 19.8284 28.2156 21.1338 28.2156 22.7382V66.586C28.2156 68.1899 29.4361 69.4946 30.9364 69.4946H50.8288C52.3291 69.4946 53.5496 68.1898 53.5496 66.586V22.7382C53.5496 21.1338 52.3291 19.8284 50.8288 19.8284H30.9364Z" fill="#070108"/>
<path d="M53.9274 22.6282V26.056H27.8376V22.6282C27.8376 20.813 29.225 19.3414 30.9364 19.3414H50.8287C52.5399 19.3415 53.9274 20.8131 53.9274 22.6282Z" fill="#FFFD5F"/>
<path d="M54.3053 26.4339H27.4597V22.6282C27.4597 20.6075 29.0194 18.9636 30.9364 18.9636H50.8287C52.7457 18.9636 54.3054 20.6075 54.3054 22.6282L54.3053 26.4339ZM28.2155 25.6781H53.5495V22.6282C53.5495 21.0242 52.329 19.7194 50.8287 19.7194H30.9364C29.4361 19.7194 28.2156 21.0243 28.2156 22.6282L28.2155 25.6781Z" fill="#070108"/>
<path d="M53.9276 66.5859L53.9273 63.1575H27.8375L27.8377 66.5859C27.8377 68.4009 29.2252 69.8725 30.9364 69.8725H50.8289C52.5402 69.8725 53.9276 68.4009 53.9276 66.5859Z" fill="#FFFD5F"/>
<path d="M50.8288 70.2504H30.9364C29.0194 70.2504 27.4597 68.6065 27.4597 66.586L27.4596 62.7797H54.3052L54.3055 66.586C54.3055 68.6065 52.7458 70.2504 50.8288 70.2504ZM28.2154 63.5354L28.2156 66.586C28.2156 68.1899 29.4361 69.4946 30.9364 69.4946H50.8288C52.3291 69.4946 53.5496 68.1898 53.5496 66.586L53.5493 63.5354H28.2154ZM45.7146 23.2442H36.0504C35.8069 23.2442 35.6077 23.045 35.6077 22.8015V22.5958C35.6077 22.3523 35.8069 22.1532 36.0504 22.1532H45.7146C45.9581 22.1532 46.1573 22.3523 46.1573 22.5958V22.8015C46.1572 23.045 45.9581 23.2442 45.7146 23.2442Z" fill="#070108"/>
<path d="M40.8825 68.3679C41.9663 68.3679 42.845 67.4893 42.845 66.4054C42.845 65.3215 41.9663 64.4429 40.8825 64.4429C39.7986 64.4429 38.9199 65.3215 38.9199 66.4054C38.9199 67.4893 39.7986 68.3679 40.8825 68.3679Z" fill="#115072"/>
<path d="M40.8825 68.7458C39.5919 68.7458 38.542 67.6958 38.542 66.4054C38.542 65.115 39.592 64.065 40.8825 64.065C42.173 64.065 43.2229 65.115 43.2229 66.4054C43.2229 67.6958 42.173 68.7458 40.8825 68.7458ZM40.8825 64.8208C40.0087 64.8208 39.2978 65.5316 39.2978 66.4054C39.2978 67.2792 40.0087 67.99 40.8825 67.99C41.7563 67.99 42.4671 67.2792 42.4671 66.4054C42.4672 65.5316 41.7563 64.8208 40.8825 64.8208Z" fill="#070108"/>
<path d="M35.8082 55.5609L35.4055 55.3284C34.0513 54.5464 32.3035 55.0148 31.5217 56.369L29.7083 59.51C28.7925 56.7114 27.9893 52.5935 27.8465 46.6288C27.842 46.4436 21.7356 53.9529 21.2863 59.3898V71.9261C21.2863 73.415 22.4933 74.6221 23.9823 74.6221H33.3382C34.9315 74.6221 36.1844 73.2478 36.0218 71.6629C35.8502 69.9899 35.197 67.7946 33.306 65.5814L36.849 59.4448C37.6307 58.0905 37.1624 56.3428 35.8082 55.5609Z" fill="#7B493D"/>
<path d="M33.3381 75H23.9822C22.2873 75 20.9084 73.6211 20.9084 71.9261V59.3898C20.9084 59.3794 20.9088 59.369 20.9097 59.3587C21.1476 56.4799 22.9152 53.1111 24.356 50.7919C25.2078 49.4209 26.0022 48.3183 26.5187 47.6347C27.573 46.2393 27.6616 46.2413 27.8548 46.2477C28.0556 46.2535 28.2195 46.419 28.2243 46.6197C28.337 51.3248 28.8712 55.3396 29.8137 58.5714L31.1946 56.18C31.6232 55.4375 32.3182 54.9057 33.1513 54.6825C33.9845 54.4592 34.8521 54.5723 35.5945 55.0009L35.9973 55.2335C37.5355 56.1215 38.0644 58.0953 37.1764 59.6335L33.7654 65.5411C35.2681 67.3724 36.1769 69.4702 36.3977 71.624C36.4858 72.4818 36.204 73.3418 35.6248 73.9836C35.0416 74.6295 34.2082 75 33.3381 75ZM21.6642 59.4056V71.9261C21.6642 73.2044 22.704 74.2442 23.9822 74.2442H33.3381C33.9947 74.2442 34.6235 73.9647 35.0635 73.4774C35.5061 72.987 35.7128 72.3563 35.6457 71.7015C35.4292 69.5902 34.5453 67.6138 33.0185 65.8268C32.9145 65.7052 32.8985 65.5311 32.9786 65.3924L36.5217 59.2558C37.2013 58.0786 36.7965 56.5678 35.6193 55.8883L35.2165 55.6556C34.6491 55.3279 33.985 55.2417 33.3467 55.4127C32.7085 55.5837 32.1765 55.9904 31.849 56.558L30.0354 59.6989C29.9608 59.828 29.8179 59.9015 29.669 59.8858C29.5207 59.8703 29.3953 59.7692 29.349 59.6274C28.2961 56.4102 27.6743 52.3702 27.4981 47.6079C25.9811 49.5475 22.0224 55.1687 21.6642 59.4056Z" fill="#070108"/>
<path d="M70.7137 33.0129V50.8612C70.7137 53.2635 68.7665 55.2106 66.3642 55.2106H55.3025C55.1591 55.7314 54.8772 56.429 54.3169 57.1756C54.0911 57.4778 53.8176 57.7896 53.4914 58.1003C52.0555 59.4633 49.5661 60.8191 45.25 61.4499C44.9263 61.4977 44.6838 61.2982 44.6025 61.0473C44.5309 60.8262 44.5834 60.5635 44.8151 60.3926C46.2248 59.3522 47.8255 57.669 48.2711 55.2106H38.73C37.5963 55.2106 36.563 54.7757 35.7889 54.065C34.924 53.2706 34.3816 52.1286 34.3816 50.8612V33.0129C34.3816 30.6106 36.3276 28.6635 38.73 28.6635H66.3642C67.5755 28.6635 68.6709 29.1581 69.4594 29.9572C70.236 30.7421 70.7137 31.8207 70.7137 33.0129Z" fill="#FFFF00" fill-opacity="0.69"/>
<path d="M45.1558 61.8349C44.7398 61.8349 44.3762 61.5744 44.2431 61.1638C44.113 60.7623 44.2496 60.3403 44.591 60.0886C45.7806 59.2105 47.2641 57.7346 47.8032 55.5886H38.73C37.5431 55.5886 36.4078 55.1464 35.5334 54.3434C34.5613 53.4506 34.0039 52.1813 34.0039 50.8612V33.0129C34.0039 30.4063 36.124 28.2855 38.73 28.2855H66.3642C67.639 28.2855 68.8338 28.7849 69.7284 29.6917C70.6073 30.5802 71.0916 31.7598 71.0916 33.0129V50.8611C71.0916 53.4677 68.971 55.5885 66.3642 55.5885H55.5826C55.3739 56.2186 55.0506 56.8276 54.6192 57.4024C54.3693 57.737 54.0774 58.0641 53.752 58.3739C51.9216 60.1116 49.0796 61.272 45.3047 61.8237C45.2546 61.8311 45.2048 61.8349 45.1558 61.8349ZM38.7301 29.0414C36.5408 29.0414 34.7598 30.823 34.7598 33.013V50.8612C34.7598 51.9703 35.2281 53.0367 36.0448 53.7868C36.7794 54.4613 37.7331 54.8328 38.7302 54.8328H48.7239L48.6433 55.2781C48.1661 57.9107 46.4204 59.678 45.0399 60.6969C44.9322 60.7763 44.9451 60.8776 44.9624 60.9309C44.9754 60.971 45.0308 61.1003 45.1952 61.076C48.8131 60.5473 51.5169 59.454 53.2317 57.8263C53.526 57.5461 53.7895 57.2509 54.0145 56.9496C54.4524 56.3661 54.7631 55.7475 54.9386 55.1104L55.0149 54.8328H66.3647C68.5547 54.8328 70.3363 53.0512 70.3363 50.8612V33.0129C70.3363 31.9602 69.9296 30.9693 69.1912 30.223C68.4394 29.4608 67.4357 29.0413 66.3648 29.0413L38.7301 29.0414Z" fill="#070108"/>
<path d="M64.1459 41.7258C64.1459 43.1099 65.2686 44.2314 66.6514 44.2314V47.5328C66.6514 48.3238 66.0107 48.9657 65.2197 48.9657H40.0068C39.2158 48.9657 38.5739 48.3238 38.5739 47.5328V44.2314C39.9579 44.2314 41.0794 43.1099 41.0794 41.7258C41.0794 40.343 39.9579 39.2203 38.5739 39.2203V35.9201C38.5739 35.1291 39.2158 34.4872 40.0068 34.4872H65.2196C66.0106 34.4872 66.6513 35.1291 66.6513 35.9201V39.2203C65.2686 39.2204 64.1459 40.343 64.1459 41.7258Z" fill="#FFFD5F"/>
<path d="M62.259 47.4683H42.9536C42.7056 47.4683 42.5046 47.2673 42.5046 47.0194V36.4336C42.5046 36.1857 42.7056 35.9846 42.9536 35.9846H62.2589C62.5069 35.9846 62.7079 36.1857 62.7079 36.4336V47.0194C62.708 47.2673 62.507 47.4683 62.259 47.4683Z" fill="#FFFD5F"/>
<path d="M46.5975 38.3437C46.367 38.3437 46.1799 38.5308 46.1799 38.7613V39.9473C46.1799 40.1778 46.367 40.3649 46.5975 40.3649C46.8281 40.3649 47.0151 40.1778 47.0151 39.9473V38.7613C47.0151 38.5308 46.8282 38.3437 46.5975 38.3437ZM46.5975 35.9716C46.367 35.9716 46.1799 36.1586 46.1799 36.3892V37.5752C46.1799 37.8057 46.367 37.9927 46.5975 37.9927C46.8281 37.9927 47.0151 37.8057 47.0151 37.5752V36.3892C47.0151 36.1586 46.8282 35.9716 46.5975 35.9716ZM46.5975 40.7159C46.367 40.7159 46.1799 40.9029 46.1799 41.1335V42.3194C46.1799 42.55 46.367 42.737 46.5975 42.737C46.8281 42.737 47.0151 42.55 47.0151 42.3194V41.1335C47.0151 40.9029 46.8282 40.7159 46.5975 40.7159Z" fill="#070108"/>
<path d="M66.6514 39.6477C66.8874 39.6477 67.0787 39.4564 67.0787 39.2204V35.9202C67.0787 34.8944 66.2448 34.06 65.2196 34.06H40.0068C38.981 34.06 38.1465 34.8945 38.1465 35.9202V39.2204C38.1465 39.4564 38.3378 39.6477 38.5739 39.6477C39.7198 39.6477 40.652 40.5799 40.652 41.7258C40.652 42.8718 39.7198 43.804 38.5739 43.804C38.3378 43.804 38.1465 43.9953 38.1465 44.2313V47.5327C38.1465 48.5586 38.9811 49.393 40.0068 49.393H65.2197C66.2448 49.393 67.0788 48.5585 67.0788 47.5327V44.2313C67.0788 43.9953 66.8876 43.804 66.6515 43.804C65.5056 43.804 64.5734 42.8718 64.5734 41.7258C64.5732 40.5799 65.5055 39.6477 66.6514 39.6477ZM46.1799 48.2498V48.5384H40.0067C39.4523 48.5384 39.0012 48.0872 39.0012 47.5328V44.6279C40.4167 44.4204 41.5068 43.1981 41.5068 41.7259C41.5068 40.2537 40.4167 39.0315 39.0012 38.824V35.9202C39.0012 35.3658 39.4524 34.9147 40.0067 34.9147H46.1799V35.2033C46.1799 35.3613 46.2687 35.4971 46.3982 35.568H42.9945C42.4946 35.568 42.088 35.9747 42.088 36.4745V46.9787C42.088 47.4784 42.4946 47.8851 42.9945 47.8851H46.3986C46.269 47.9558 46.1799 48.0918 46.1799 48.2498ZM46.5975 45.4601C46.367 45.4601 46.1799 45.6471 46.1799 45.8777V47.0516H42.9944C42.9539 47.0516 42.9212 47.0189 42.9212 46.9786V36.4744C42.9212 36.4339 42.9539 36.4012 42.9944 36.4012H62.2181C62.2585 36.4012 62.2912 36.4339 62.2912 36.4744V46.9786C62.2912 47.0189 62.2585 47.0516 62.2181 47.0516H47.015V45.8777C47.0151 45.6471 46.8282 45.4601 46.5975 45.4601ZM63.7184 41.7258C63.7184 43.198 64.8084 44.4203 66.224 44.6278V47.5327C66.224 48.0872 65.7735 48.5382 65.2196 48.5382H47.0151V48.2497C47.0151 48.0917 46.9262 47.9557 46.7966 47.8848H62.2182C62.718 47.8848 63.1246 47.4782 63.1246 46.9785V36.4743C63.1246 35.9745 62.718 35.5678 62.2182 35.5678H46.7969C46.9264 35.4969 47.0152 35.361 47.0152 35.203V34.9145H65.2197C65.7735 34.9145 66.2241 35.3657 66.2241 35.92V38.8238C64.8084 39.0315 63.7184 40.2536 63.7184 41.7258Z" fill="#070108"/>
<path d="M46.5975 43.088C46.367 43.088 46.1799 43.275 46.1799 43.5056V44.6915C46.1799 44.9221 46.367 45.1091 46.5975 45.1091C46.8281 45.1091 47.0151 44.9221 47.0151 44.6915V43.5056C47.0151 43.275 46.8282 43.088 46.5975 43.088ZM61.0044 38.5647H49.0435C48.8129 38.5647 48.6259 38.3776 48.6259 38.1471C48.6259 37.9165 48.8129 37.7295 49.0435 37.7295H61.0044C61.235 37.7295 61.422 37.9165 61.422 38.1471C61.422 38.3776 61.235 38.5647 61.0044 38.5647ZM61.0044 40.9509H49.0435C48.8129 40.9509 48.6259 40.7639 48.6259 40.5333C48.6259 40.3027 48.8129 40.1157 49.0435 40.1157H61.0044C61.235 40.1157 61.422 40.3027 61.422 40.5333C61.422 40.7639 61.235 40.9509 61.0044 40.9509ZM61.0044 43.3371H49.0435C48.8129 43.3371 48.6259 43.1501 48.6259 42.9195C48.6259 42.689 48.8129 42.502 49.0435 42.502H61.0044C61.235 42.502 61.422 42.689 61.422 42.9195C61.422 43.1501 61.235 43.3371 61.0044 43.3371ZM58.7524 45.7234H51.2954C51.0648 45.7234 50.8778 45.5363 50.8778 45.3058C50.8778 45.0752 51.0648 44.8882 51.2954 44.8882H58.7524C58.9829 44.8882 59.17 45.0752 59.17 45.3058C59.17 45.5363 58.9829 45.7234 58.7524 45.7234Z" fill="#070108"/>
</svg>
