<svg width="82" height="78" viewBox="0 0 82 78" fill="none" xmlns="http://www.w3.org/2000/svg">
<path fill-rule="evenodd" clip-rule="evenodd" d="M51.7945 28.8549H54.0759C55.156 28.8549 56.1358 29.3028 56.8472 30.0246C57.5586 30.7464 58 31.7406 58 32.8364V50.2322C58 51.3281 57.5586 52.3222 56.8472 53.0441C56.2037 53.697 55.337 54.1268 54.3782 54.2006H28.6218C27.6613 54.1251 26.7963 53.697 26.1528 53.0441C25.4414 52.3222 25 51.3281 25 50.2322V32.8364C25 31.7406 25.4414 30.7464 26.1528 30.0246C26.8642 29.3028 27.844 28.8549 28.9241 28.8549H31.2055V26.1727H30.1853C29.7552 26.1727 29.3639 25.9939 29.0809 25.7068C28.798 25.4197 28.6218 25.0227 28.6218 24.5864C28.6218 24.15 28.798 23.753 29.0809 23.4659C29.3639 23.1788 29.7552 23 30.1853 23H52.8164C53.2464 23 53.6377 23.1788 53.9207 23.4659C54.2036 23.753 54.3799 24.15 54.3799 24.5864C54.3799 25.0227 54.2036 25.4197 53.9207 25.7068C53.6377 25.9939 53.2464 26.1727 52.8164 26.1727H51.7961V28.8549H51.7945ZM54.3782 54.9372V58H28.6218V54.9372H54.3782ZM38.5379 47.1875C37.7796 46.4181 37.3107 45.3567 37.3107 44.1821C37.3107 42.9714 38.8047 40.6452 39.9915 38.7947C40.4038 38.1533 40.7773 37.5709 41.0295 37.128H41.0311C41.078 37.0476 41.1443 36.977 41.23 36.9262C41.4903 36.7753 41.8218 36.8655 41.9705 37.1296C42.1678 37.4774 42.5154 38.0237 42.9083 38.6438C44.0886 40.5025 45.6877 43.0223 45.6877 44.1821C45.6877 45.3551 45.2188 46.4181 44.4605 47.1875C43.7022 47.9569 42.6561 48.4326 41.4984 48.4326C40.3423 48.4326 39.2946 47.9569 38.5363 47.1875H38.5379ZM52.8147 24.4764H30.1836C30.1545 24.4764 30.127 24.4896 30.106 24.5093C30.085 24.5306 30.0737 24.5568 30.0737 24.588C30.0737 24.6175 30.0866 24.6454 30.106 24.6667C30.127 24.6881 30.1529 24.6996 30.1836 24.6996H52.8147C52.8438 24.6996 52.8713 24.6864 52.8924 24.6667C52.9134 24.6454 52.9247 24.6192 52.9247 24.588C52.9247 24.5585 52.9118 24.5306 52.8924 24.5093C52.8713 24.4879 52.8455 24.4764 52.8147 24.4764ZM40.9535 28.8549V28.2742H40.04C39.7392 28.2742 39.4951 28.0265 39.4951 27.7213C39.4951 27.4162 39.7392 27.1685 40.04 27.1685H42.9552C43.2559 27.1685 43.5 27.4162 43.5 27.7213C43.5 28.0265 43.2559 28.2742 42.9552 28.2742H42.0416V28.8549H50.7031V26.1727H32.292V28.8549H40.9535Z" fill="black"/>
</svg>
