<svg width="42" height="42" viewBox="0 0 42 42" fill="none" xmlns="http://www.w3.org/2000/svg">
<path d="M40.0297 38.3992H3.60112V1.97059C3.60112 1.11345 2.9154 0.427734 2.05826 0.427734C1.20112 0.427734 0.429688 1.11345 0.429688 1.97059V39.942C0.429688 40.7992 1.1154 41.4849 1.97254 41.4849H39.944C40.8011 41.4849 41.4868 40.7992 41.4868 39.942C41.5725 39.0849 40.8868 38.3992 40.0297 38.3992Z" fill="black"/>
<path d="M8.82905 27.7714C9.25762 27.7714 9.77191 27.6 10.029 27.2571L15.6862 20.5714L19.6291 27C19.8862 27.4286 20.3148 27.6857 20.829 27.7714H21.0005C21.429 27.7714 21.8576 27.6 22.2005 27.2571L31.629 16.3714C31.8005 16.8857 32.229 17.4 32.9148 17.4857C33.0005 17.4857 33.0862 17.4857 33.1719 17.4857C33.9433 17.4857 34.6291 16.8857 34.7148 16.2L35.4862 11.6571C35.4862 11.5714 35.4862 11.5714 35.4862 11.4857C35.4862 11.4 35.4862 11.4 35.4862 11.3143V11.2286C35.4862 11.1429 35.4862 11.1429 35.4862 11.0571C35.4862 10.9714 35.4862 10.9714 35.4005 10.8857C35.4005 10.8 35.4005 10.8 35.3148 10.7143C35.3148 10.6286 35.229 10.6286 35.229 10.5429C35.229 10.5429 35.229 10.4571 35.1433 10.4571L35.0576 10.3714C35.0576 10.2857 34.9719 10.2857 34.9719 10.2857L34.8862 10.2C34.8862 10.2 34.8005 10.1143 34.7148 10.1143C34.6291 10.1143 34.6291 10.0286 34.5433 10.0286C34.4576 10.0286 34.4576 9.94286 34.3719 9.94286C34.2862 9.94286 34.2005 9.85714 34.2005 9.85714L29.5719 9C29.4862 9 29.4005 9 29.3148 9C28.5433 9 27.8576 9.6 27.7719 10.2857C27.6862 10.7143 27.7719 11.1429 28.029 11.4857C28.2862 11.8286 28.629 12.0857 29.0576 12.0857L30.7719 12.3429L21.2576 23.4857L17.3148 17.0571C17.0576 16.6286 16.629 16.3714 16.1148 16.2857H16.029C15.6005 16.2857 15.0862 16.4571 14.829 16.8L7.71476 25.1143C7.45762 25.4571 7.28619 25.8857 7.37191 26.2286C7.37191 26.6571 7.62905 27 7.88619 27.3429C8.05762 27.6 8.48619 27.7714 8.82905 27.7714Z" fill="black"/>
</svg>
