<svg width="97" height="97" viewBox="0 0 97 97" fill="none" xmlns="http://www.w3.org/2000/svg">
<path d="M0 10C0 4.47715 4.47715 0 10 0H87C92.5229 0 97 4.47715 97 10V87C97 92.5229 92.5229 97 87 97H10C4.47715 97 0 92.5229 0 87V10Z" fill="black"/>
<path d="M68.4219 33.3125C68.8963 33.3125 69.2812 32.9275 69.2812 32.4531V30.7344C69.2812 28.3642 67.3545 26.4375 64.9844 26.4375H63.2656C62.7912 26.4375 62.4062 26.8225 62.4062 27.2969C62.4062 27.7712 62.7912 28.1562 63.2656 28.1562H64.9844C66.4058 28.1562 67.5625 29.313 67.5625 30.7344V32.4531C67.5625 32.9275 67.9475 33.3125 68.4219 33.3125ZM17.7188 70.2656V68.5469C17.7188 68.0725 18.1038 67.6875 18.5781 67.6875H54.6719C55.1463 67.6875 55.5312 68.0725 55.5312 68.5469V70.2656C55.5312 71.687 56.688 72.8438 58.1094 72.8438C58.5838 72.8438 58.9688 73.2287 58.9688 73.7031C58.9688 74.1775 58.5838 74.5625 58.1094 74.5625H22.0156C19.6455 74.5625 17.7188 72.6358 17.7188 70.2656ZM53.8125 70.2656V69.4062H19.4375V70.2656C19.4375 71.687 20.5942 72.8438 22.0156 72.8438H54.6736C54.1339 72.1253 53.8125 71.2333 53.8125 70.2656ZM53.8314 53.9547C53.4963 54.2916 53.4963 54.8347 53.8314 55.1716L56.2617 57.6019C56.5969 57.937 57.1417 57.937 57.4769 57.6019C57.812 57.2667 57.812 56.7219 57.4769 56.3867L55.0466 53.9547C54.7097 53.6178 54.1666 53.6178 53.8314 53.9547Z" fill="#FFFD5F"/>
<path d="M45.2188 59.0938C37.6373 59.0938 31.4688 52.9252 31.4688 45.3438C31.4688 37.7623 37.6373 31.5938 45.2188 31.5938C48.0719 31.5938 50.8081 32.46 53.1336 34.0997C53.522 34.3713 53.6148 34.9092 53.3416 35.2959C53.0683 35.6844 52.5303 35.7789 52.1436 35.5022C50.1103 34.0688 47.7161 33.3125 45.2188 33.3125C38.5844 33.3125 33.1875 38.7111 33.1875 45.3438C33.1875 51.9764 38.5844 57.375 45.2188 57.375C51.8531 57.375 57.25 51.9764 57.25 45.3438C57.25 44.108 57.0644 42.8911 56.6966 41.7258C56.5539 41.272 56.8048 40.7891 57.2586 40.6481C57.7123 40.5089 58.1936 40.7564 58.3363 41.2084C58.7556 42.5422 58.9688 43.9344 58.9688 45.3438C58.9688 52.9252 52.8002 59.0938 45.2188 59.0938ZM58.9688 57.375C59.4088 57.375 59.8488 57.5434 60.1839 57.8786L67.0589 64.7536C67.7309 65.4256 67.7309 66.5119 67.0589 67.1839C66.7238 67.5191 66.2838 67.6875 65.8438 67.6875C65.4037 67.6875 64.9637 67.5191 64.6286 67.1839L57.7536 60.3089C57.0816 59.6369 57.0816 58.5506 57.7536 57.8786C58.0887 57.5434 58.5287 57.375 58.9688 57.375ZM58.9688 55.6562C58.0509 55.6562 57.1881 56.0137 56.5384 56.6634C55.8887 57.3131 55.5312 58.1759 55.5312 59.0938C55.5312 60.0116 55.8887 60.8744 56.5384 61.5241L63.4134 68.3991C64.0631 69.0488 64.9259 69.4062 65.8438 69.4062C66.7616 69.4062 67.6244 69.0488 68.2741 68.3991C68.9238 67.7494 69.2812 66.8866 69.2812 65.9688C69.2812 65.0509 68.9238 64.1881 68.2741 63.5384L61.3991 56.6634C60.7494 56.0137 59.8866 55.6562 58.9688 55.6562Z" fill="#FFFD5F"/>
<path d="M44.3593 50.5001C44.3524 50.5001 44.3455 50.5001 44.3386 50.5001C44.0894 50.4932 43.8574 50.3815 43.6975 50.1907L39.4007 45.0344C39.0982 44.6683 39.148 44.1269 39.5107 43.8227C39.8768 43.5202 40.4164 43.5701 40.7224 43.9327L44.3885 48.3344L56.6157 35.3097C56.9388 34.9591 57.4819 34.9385 57.8291 35.2565C58.178 35.5779 58.2021 36.121 57.8807 36.4716L44.9918 50.2216C44.8285 50.3987 44.6016 50.5001 44.3593 50.5001Z" fill="#FFFD5F"/>
<path d="M64.9844 28.1562C65.4588 28.1562 65.8438 27.7712 65.8438 27.2969C65.8438 26.8225 65.4588 26.4375 64.9844 26.4375H30.6094C28.2392 26.4375 26.3125 28.3642 26.3125 30.7344V65.1094C26.3125 65.5838 26.6975 65.9688 27.1719 65.9688C27.6462 65.9688 28.0312 65.5838 28.0312 65.1094V30.7344C28.0312 29.313 29.188 28.1562 30.6094 28.1562H61.5486C61.0089 28.8747 60.6875 29.7684 60.6875 30.7344V53.0781C60.6875 53.5525 61.0725 53.9375 61.5469 53.9375C62.0213 53.9375 62.4062 53.5525 62.4062 53.0781V30.7344C62.4062 29.313 63.563 28.1562 64.9844 28.1562ZM58.1094 72.8438H55.1016V74.5625H58.1094C60.4795 74.5625 62.4062 72.6358 62.4062 70.2656C62.4062 69.7912 62.0213 69.4062 61.5469 69.4062C61.0725 69.4062 60.6875 69.7912 60.6875 70.2656C60.6875 71.687 59.5308 72.8438 58.1094 72.8438Z" fill="#FFFD5F"/>
</svg>
