<svg width="52" height="57" viewBox="0 0 52 57" fill="none" xmlns="http://www.w3.org/2000/svg">
<path d="M27.1836 56.6556C29.1641 55.3959 31.1504 54.1419 33.1309 52.8822C34.0273 52.3138 34.9355 51.7513 35.8086 51.1419C37.8828 49.6947 39.8281 48.0482 41.5566 46.1966C44.9785 42.5228 47.5801 38.1693 49.2266 33.429C50.5684 29.556 51.1426 25.472 51.1426 21.3822C51.1426 18.8509 51.1426 16.3197 51.1426 13.7884C51.1426 13.7181 51.1426 13.6537 51.1426 13.5833C51.1426 12.5345 50.4101 11.6204 49.4199 11.3216C48.7051 11.1048 47.9961 10.8822 47.3105 10.5951C47.498 10.6712 47.6855 10.7533 47.873 10.8294C46.6484 10.3079 45.5 9.63998 44.4453 8.83138C44.6035 8.95443 44.7617 9.07748 44.9199 9.20052C43.8769 8.39193 42.9394 7.46029 42.1308 6.41732C42.2539 6.57552 42.3769 6.73373 42.5 6.89193C41.6914 5.83724 41.0176 4.68294 40.4961 3.45833C40.5723 3.64583 40.6543 3.83333 40.7305 4.02083C40.5547 3.59896 40.3906 3.16537 40.25 2.73177C39.9336 1.74154 39.0488 1.00911 37.9883 1.00911C37.1914 1.00911 36.3945 1.00911 35.5976 1.00911C33.6875 1.00911 31.7715 1.00911 29.8613 1.00911C27.5586 1.00911 25.2559 1.00911 22.9531 1.00911C20.9551 1.00911 18.957 1.00911 16.959 1.00911C15.9922 1.00911 15.0195 0.979818 14.0527 1.00911C14.041 1.00911 14.0234 1.00911 14.0117 1.00911C12.9453 1.00911 12.0664 1.74154 11.75 2.73177C11.6094 3.17122 11.4512 3.59896 11.2695 4.02083C11.3457 3.83333 11.4277 3.64583 11.5039 3.45833C10.9824 4.68294 10.3086 5.83138 9.5 6.89193C9.62304 6.73373 9.74609 6.57552 9.86914 6.41732C9.06054 7.46029 8.12305 8.39193 7.08008 9.20052C7.23828 9.07748 7.39648 8.95443 7.55469 8.83138C6.5 9.63998 5.3457 10.3079 4.12695 10.8294C4.31445 10.7533 4.50195 10.6712 4.68945 10.5951C3.99805 10.8822 3.29492 11.1048 2.58008 11.3216C1.58984 11.6204 0.857422 12.5345 0.857422 13.5833C0.857422 15.9388 0.857422 18.2943 0.857422 20.6497C0.857422 21.8919 0.857422 23.1341 0.945312 24.3763C1.13281 26.9017 1.56055 29.4212 2.26953 31.8529C3.67578 36.681 6.11328 41.1283 9.34765 44.9662C11.8613 47.9486 14.8906 50.3626 18.1719 52.4427C20.334 53.8138 22.4961 55.1849 24.6582 56.556C24.7109 56.5912 24.7695 56.6263 24.8223 56.6615C25.8594 57.3177 27.4531 56.9134 28.0273 55.8177C28.6367 54.6576 28.291 53.3158 27.1836 52.6127C26.1289 51.9447 25.0742 51.2767 24.0254 50.6087C22.6777 49.7533 21.3359 48.9037 19.9883 48.0482C19.0449 47.4505 18.125 46.8119 17.2344 46.1322C17.3926 46.2552 17.5508 46.3783 17.709 46.5013C15.4941 44.7845 13.502 42.7923 11.7852 40.5775C11.9082 40.7357 12.0312 40.8939 12.1543 41.0521C10.4082 38.7845 8.95508 36.3001 7.83594 33.6634C7.91211 33.8509 7.99414 34.0384 8.07031 34.2259C6.92773 31.513 6.14844 28.6654 5.75586 25.7474C5.78516 25.9525 5.81445 26.1634 5.83789 26.3685C5.58594 24.4701 5.54492 22.5716 5.54492 20.6673C5.54492 18.8158 5.54492 16.9642 5.54492 15.1126C5.54492 14.6087 5.54492 14.1107 5.54492 13.6068C4.9707 14.3626 4.39648 15.1126 3.82226 15.8685C5.84375 15.2591 7.80078 14.4505 9.51758 13.2142C11.5508 11.7494 13.2852 9.94466 14.5742 7.78841C15.2832 6.60482 15.8516 5.31576 16.2734 4.00326C15.5176 4.57748 14.7676 5.15169 14.0117 5.72591C14.8086 5.72591 15.6055 5.72591 16.4023 5.72591C18.3125 5.72591 20.2285 5.72591 22.1387 5.72591C24.4414 5.72591 26.7441 5.72591 29.0469 5.72591C31.0449 5.72591 33.043 5.72591 35.041 5.72591C36.0078 5.72591 36.9805 5.74935 37.9473 5.72591C37.959 5.72591 37.9766 5.72591 37.9883 5.72591C37.2324 5.15169 36.4824 4.57748 35.7266 4.00326C37.1973 8.59115 40.5371 12.5814 44.9199 14.6439C45.9746 15.1419 47.0586 15.5287 48.1777 15.8685C47.6035 15.1126 47.0293 14.3626 46.4551 13.6068C46.4551 14.9193 46.4551 16.2318 46.4551 17.5443C46.4551 19.0033 46.4551 20.4622 46.4551 21.9154C46.4551 23.4037 46.3555 24.8919 46.1621 26.3685C46.1914 26.1634 46.2207 25.9525 46.2441 25.7474C45.8457 28.6595 45.0664 31.513 43.9297 34.2259C44.0058 34.0384 44.0879 33.8509 44.1641 33.6634C43.0449 36.3001 41.5918 38.7845 39.8457 41.0521C39.9687 40.8939 40.0918 40.7357 40.2148 40.5775C38.498 42.7923 36.5059 44.7845 34.291 46.5013C34.4492 46.3783 34.6074 46.2552 34.7656 46.1322C33.4531 47.1459 32.0586 48.0189 30.6641 48.9095C29.1172 49.8939 27.5703 50.8724 26.0234 51.8568C25.625 52.1087 25.2207 52.3666 24.8223 52.6185C24.3125 52.9408 23.9082 53.4271 23.7441 54.0189C23.5918 54.5814 23.6621 55.3255 23.9785 55.8236C24.6465 56.8548 26.0762 57.3587 27.1836 56.6556Z" fill="black"/>
<path d="M14.0591 28.8774C16.063 30.8813 18.0669 32.8852 20.0766 34.895C20.3637 35.1821 20.6509 35.4692 20.9321 35.7505C21.8286 36.6469 23.352 36.6469 24.2485 35.7505C25.7954 34.2036 27.3481 32.6509 28.895 31.104C31.3442 28.6548 33.7993 26.1997 36.2485 23.7505C36.811 23.188 37.3794 22.6196 37.9419 22.0571C38.8091 21.1899 38.8735 19.5962 37.9419 18.7407C37.0044 17.8794 35.5512 17.8149 34.6255 18.7407C33.0786 20.2876 31.5259 21.8403 29.979 23.3872C27.5298 25.8364 25.0747 28.2915 22.6255 30.7407C22.063 31.3032 21.4946 31.8716 20.9321 32.4341C22.0395 32.4341 23.1411 32.4341 24.2485 32.4341C22.2446 30.4301 20.2407 28.4262 18.2309 26.4165C17.9438 26.1294 17.6567 25.8423 17.3755 25.561C16.5083 24.6938 14.9145 24.6294 14.0591 25.561C13.1977 26.4985 13.1333 27.9458 14.0591 28.8774Z" fill="black"/>
</svg>
