<svg width="60" height="60" viewBox="0 0 60 60" fill="none" xmlns="http://www.w3.org/2000/svg">
<path d="M53.525 28.95L31.025 6.45C30.125 5.55 28.875 5 27.5 5H10C7.25 5 5 7.25 5 10V27.5C5 28.875 5.55 30.125 6.475 31.05L28.975 53.55C29.875 54.45 31.125 55 32.5 55C33.875 55 35.125 54.45 36.025 53.525L53.525 36.025C54.45 35.125 55 33.875 55 32.5C55 31.125 54.425 29.85 53.525 28.95ZM32.5 50.025L10 27.5V10H27.5V9.975L50 32.475L32.5 50.025Z" fill="black"/>
<path d="M16.25 20C18.3211 20 20 18.3211 20 16.25C20 14.1789 18.3211 12.5 16.25 12.5C14.1789 12.5 12.5 14.1789 12.5 16.25C12.5 18.3211 14.1789 20 16.25 20Z" fill="black"/>
<path d="M22.25 31.375C22.25 32.8 22.825 34.05 23.75 35L32.5 43.75L41.25 35C42.175 34.075 42.75 32.775 42.75 31.375C42.75 28.55 40.45 26.25 37.625 26.25C36.2 26.25 34.925 26.825 34 27.75L32.5 29.25L31 27.775C30.075 26.825 28.775 26.25 27.375 26.25C24.55 26.25 22.25 28.55 22.25 31.375Z" fill="black"/>
</svg>
