<svg width="30" height="37" viewBox="0 0 30 37" fill="none" xmlns="http://www.w3.org/2000/svg">
<mask id="path-1-inside-1_195_29" fill="white">
<path d="M29.6513 11.4709H20.0325L28.682 0.566355C28.861 0.335457 28.6995 0 28.407 0H11.6624C11.5401 0 11.4222 0.0653496 11.3611 0.174263L0.0481243 19.6699C-0.0872288 19.9008 0.0786877 20.1927 0.349396 20.1927H7.96415L4.06071 35.7718C3.97775 36.1116 4.38818 36.3512 4.64143 36.1073L29.8915 12.0677C30.1185 11.8542 29.9657 11.4709 29.6513 11.4709Z"/>
</mask>
<path d="M52 19C52 39.9403 34.1391 57 12 57V59C35.1482 59 54 41.1379 54 19H52ZM12 57C-10.1391 57 -28 39.9403 -28 19H-30C-30 41.1379 -11.1482 59 12 59V57ZM-28 19C-28 -1.94028 -10.1391 -19 12 -19V-21C-11.1482 -21 -30 -3.13793 -30 19H-28ZM12 -19C34.1391 -19 52 -1.94028 52 19H54C54 -3.13793 35.1482 -21 12 -21V-19ZM20.0325 11.4709L18.4656 10.228L15.8933 13.4709H20.0325V11.4709ZM28.682 0.566355L30.2489 1.80925L30.2558 1.80056L30.2626 1.7918L28.682 0.566355ZM11.3611 0.174263L13.0909 1.17806L13.0982 1.16564L13.1052 1.15311L11.3611 0.174263ZM0.0481243 19.6699L1.77354 20.6814L1.77798 20.6737L0.0481243 19.6699ZM7.96415 20.1927L9.90417 20.6788L10.5271 18.1927H7.96415V20.1927ZM4.06071 35.7718L2.12064 35.2857L2.11777 35.2975L4.06071 35.7718ZM4.64143 36.1073L3.26234 34.6587L3.25383 34.6669L4.64143 36.1073ZM29.8915 12.0677L28.5215 10.6106L28.5124 10.6192L29.8915 12.0677ZM29.6513 9.47085H20.0325V13.4709H29.6513V9.47085ZM21.5994 12.7137L30.2489 1.80925L27.1151 -0.676537L18.4656 10.228L21.5994 12.7137ZM30.2626 1.7918C31.4429 0.269478 30.3911 -2 28.407 -2V2C27.0079 2 26.2792 0.401434 27.1014 -0.659088L30.2626 1.7918ZM28.407 -2H11.6624V2H28.407V-2ZM11.6624 -2C10.8492 -2 10.0476 -1.57191 9.617 -0.804585L13.1052 1.15311C12.7968 1.70261 12.231 2 11.6624 2V-2ZM9.63124 -0.829536L-1.68173 18.6661L1.77798 20.6737L13.0909 1.17806L9.63124 -0.829536ZM-1.67727 18.6585C-2.59526 20.2245 -1.46472 22.1927 0.349396 22.1927V18.1927C1.62209 18.1927 2.4208 19.5772 1.77352 20.6814L-1.67727 18.6585ZM0.349396 22.1927H7.96415V18.1927H0.349396V22.1927ZM6.02412 19.7066L2.12068 35.2857L6.00074 36.2579L9.90417 20.6788L6.02412 19.7066ZM2.11777 35.2975C1.56881 37.5461 4.30569 39.2078 6.02902 37.5476L3.25383 34.6669C4.47067 33.4946 6.38669 34.6771 6.00365 36.2461L2.11777 35.2975ZM6.02049 37.5558L31.2705 13.5162L28.5124 10.6192L3.26236 34.6588L6.02049 37.5558ZM31.2615 13.5248C32.8293 12.0507 31.7486 9.47085 29.6513 9.47085V13.4709C28.1828 13.4709 27.4077 11.6578 28.5215 10.6106L31.2615 13.5248Z" fill="black" mask="url(#path-1-inside-1_195_29)"/>
</svg>
