<svg width="82" height="78" viewBox="0 0 82 78" fill="none" xmlns="http://www.w3.org/2000/svg">
<path d="M56.0883 27.208C56.0885 27.0689 56.0606 26.9311 56.0063 26.803C55.9519 26.6749 55.8722 26.5592 55.7719 26.4627L50.6391 21.4775C50.5126 21.3528 50.3566 21.2623 50.1857 21.2143C50.0147 21.1663 49.8343 21.1625 49.6615 21.2033C49.4887 21.244 49.329 21.328 49.1974 21.4473C49.0659 21.5666 48.9668 21.7173 48.9094 21.8854C48.9024 21.9135 47.9672 24.6275 45.3094 24.4518C44.4942 24.395 43.7089 24.1221 43.0341 23.6612C42.3594 23.2002 41.8196 22.5679 41.4703 21.8291C41.3923 21.6377 41.2589 21.474 41.0873 21.3587C40.9158 21.2435 40.7137 21.1821 40.507 21.1822H40.5C40.2936 21.1829 40.0918 21.2438 39.9194 21.3575C39.7471 21.4711 39.6116 21.6326 39.5297 21.8221C39.1824 22.5629 38.6433 23.1973 37.9683 23.6597C37.2933 24.1221 36.5069 24.3955 35.6906 24.4518C33.075 24.6275 32.1258 21.9908 32.0906 21.8854C32.0332 21.7173 31.9341 21.5666 31.8026 21.4473C31.671 21.328 31.5114 21.244 31.3385 21.2033C31.1657 21.1625 30.9853 21.1663 30.8144 21.2143C30.6434 21.2623 30.4874 21.3528 30.361 21.4775L25.2281 26.4627C25.1279 26.5592 25.0481 26.6749 24.9938 26.803C24.9394 26.9311 24.9115 27.0689 24.9117 27.208C24.9085 27.348 24.9344 27.4871 24.9876 27.6166C25.0409 27.7461 25.1204 27.8631 25.2211 27.9604C27.45 30.1963 27.1688 33.3111 25.7977 38.6408C24.4336 43.9494 25.8258 51.2268 40.1836 55.776C40.3895 55.8415 40.6106 55.8415 40.8164 55.776C55.1742 51.2268 56.5664 43.9494 55.2024 38.6408C53.8313 33.3111 53.55 30.1963 55.7789 27.9604C55.8796 27.8631 55.9591 27.7461 56.0124 27.6166C56.0656 27.4871 56.0915 27.348 56.0883 27.208ZM41.5547 39.4424V43.7525C41.5547 44.0323 41.4436 44.3005 41.2458 44.4983C41.048 44.6961 40.7797 44.8072 40.5 44.8072C40.2203 44.8072 39.952 44.6961 39.7542 44.4983C39.5564 44.3005 39.4453 44.0323 39.4453 43.7525V39.4424C38.7849 39.1952 38.2322 38.724 37.8837 38.1109C37.5353 37.4979 37.4132 36.7819 37.5387 36.088C37.6643 35.3941 38.0296 34.7663 38.5708 34.3142C39.112 33.8622 39.7948 33.6145 40.5 33.6145C41.2052 33.6145 41.888 33.8622 42.4292 34.3142C42.9704 34.7663 43.3357 35.3941 43.4613 36.088C43.5869 36.7819 43.4648 37.4979 43.1163 38.1109C42.7678 38.724 42.2152 39.1952 41.5547 39.4424ZM41.4 36.6299C41.3986 36.8076 41.3447 36.9809 41.2449 37.128C41.1452 37.275 41.0042 37.3893 40.8396 37.4563C40.675 37.5234 40.4943 37.5402 40.3202 37.5047C40.146 37.4692 39.9863 37.3829 39.8612 37.2568C39.736 37.1306 39.651 36.9703 39.6168 36.7959C39.5827 36.6215 39.6009 36.4409 39.6692 36.2768C39.7375 36.1128 39.8529 35.9726 40.0007 35.8741C40.1486 35.7755 40.3223 35.7229 40.5 35.7229C40.6187 35.7231 40.7362 35.7467 40.8458 35.7925C40.9553 35.8382 41.0548 35.9052 41.1384 35.9895C41.222 36.0737 41.2882 36.1737 41.3331 36.2836C41.378 36.3935 41.4007 36.5112 41.4 36.6299Z" fill="black"/>
</svg>
