<svg width="60" height="60" viewBox="0 0 60 60" fill="none" xmlns="http://www.w3.org/2000/svg">
<path d="M30 0C13.4453 0 0.000226386 13.4453 1.62663e-09 30C-0.000170768 46.5552 13.445 60 30 60C46.555 60 60.0002 46.5552 60 30C59.9998 13.4453 46.5547 0 30 0ZM30 2.3122C45.3075 2.3122 57.6921 14.6926 57.6923 30C57.6925 45.3078 45.3077 57.6923 30 57.6923C14.6923 57.6923 2.30753 45.3078 2.30769 30C2.3079 14.6926 14.6925 2.3122 30 2.3122ZM27.6923 11.5385C27.0551 11.5385 26.5385 12.0552 26.5385 12.6923V16.7849C25.3316 17.1045 24.1863 17.5836 23.1085 18.2136L20.2103 15.3155C19.7597 14.865 19.0293 14.865 18.5787 15.3155L15.3155 18.5787C14.8651 19.0292 14.8651 19.7596 15.3155 20.2103L18.2046 23.0995C17.5763 24.1804 17.1015 25.329 16.7849 26.5385H12.6923C12.0551 26.5385 11.5385 27.0552 11.5385 27.6923V32.3077C11.5385 32.9448 12.0551 33.4615 12.6923 33.4615H16.7803C17.1001 34.6689 17.5787 35.8179 18.2091 36.896L15.3155 39.7897C14.8651 40.2404 14.8651 40.9708 15.3155 41.4213L18.5787 44.6845C19.0293 45.135 19.7597 45.135 20.2103 44.6845L23.0949 41.7999C24.1766 42.4287 25.3281 42.903 26.5385 43.2197V47.3077C26.5385 47.9448 27.0551 48.4615 27.6923 48.4615H32.3077C32.9449 48.4615 33.4615 47.9448 33.4615 47.3077V43.2197C33.7979 43.1297 34.6379 42.8095 34.6379 42.8095L34.6289 40.5604C34.6289 40.5604 32.9696 41.1815 32.0959 41.3447C31.5508 41.4462 31.1553 41.9214 31.1538 42.476V46.1538H28.8462V42.4715C28.8443 41.9155 28.4464 41.4401 27.8996 41.3401C26.307 41.048 24.7957 40.4209 23.46 39.5057C23.0016 39.1909 22.3839 39.2458 21.9907 39.6409L19.3945 42.2371L17.7629 40.6055L20.3681 38.0003C20.7613 37.6071 20.8182 36.9893 20.5033 36.5309C19.5846 35.1987 18.9568 33.6868 18.6599 32.0959C18.5577 31.5492 18.0802 31.1532 17.524 31.1538H13.8462V28.8462H17.5285C18.0847 28.8468 18.5622 28.4508 18.6644 27.9041C18.9565 26.3116 19.5789 24.7957 20.4943 23.46C20.8092 23.0017 20.7523 22.3839 20.3591 21.9907L17.7629 19.3945L19.3945 17.7629L21.9997 20.3681C22.3929 20.7613 23.0107 20.8162 23.469 20.5033C24.8012 19.5846 26.3134 18.9566 27.9041 18.6599C28.4508 18.5583 28.8469 18.08 28.8462 17.524V13.8462H31.1538V17.5285C31.1535 18.0861 31.5519 18.5642 32.1004 18.6644C33.6931 18.9565 35.2043 19.5833 36.54 20.4988C36.9994 20.8124 37.6172 20.758 38.0093 20.3636L40.6055 17.7674L42.2371 19.399L39.6319 22.0042C39.2362 22.3981 39.1793 23.0186 39.4967 23.4781C40.4154 24.8103 41.0432 26.318 41.3401 27.9087C41.4423 28.4553 41.9198 28.8514 42.476 28.8507H46.1538V31.1584H42.4715C41.9139 31.1581 41.4359 31.5563 41.3356 32.1049C41.267 32.4789 40.957 33.4165 40.957 33.4165L43.0349 34.043C43.0349 34.043 43.1682 33.6631 43.2197 33.466H47.3077C47.9449 33.466 48.4615 32.9494 48.4615 32.3122V27.6968C48.4615 27.0597 47.9449 26.543 47.3077 26.543H43.2197C42.8996 25.3347 42.422 24.1875 41.7909 23.1085L44.6845 20.2148C45.1349 19.7642 45.1349 19.0337 44.6845 18.5832L41.4213 15.32C40.9707 14.8696 40.2403 14.8696 39.7897 15.32L36.9005 18.2091C35.82 17.5814 34.6705 17.1057 33.4615 16.7894V12.6968C33.4615 12.0597 32.9449 11.543 32.3077 11.543L27.6923 11.5385ZM30 20.7692C24.9157 20.7692 20.7692 24.9157 20.7692 30C20.7692 35.0843 24.9157 39.2308 30 39.2308C35.0843 39.2308 39.2308 35.0843 39.2308 30C39.2308 24.9157 35.0843 20.7692 30 20.7692ZM40.3846 35.7692V39.2308H36.9231V41.5385H40.3846V45H42.6923V41.5385H46.1538V39.2308H42.6923V35.7692H40.3846Z" fill="black"/>
</svg>
