<svg width="60" height="44" viewBox="0 0 60 44" fill="none" xmlns="http://www.w3.org/2000/svg">
<path d="M48.0587 43.8941H1.25C0.918479 43.8941 0.600537 43.7624 0.366117 43.5279C0.131696 43.2935 0 42.9756 0 42.6441V15.8516C0 15.52 0.131696 15.2021 0.366117 14.9677C0.600537 14.7333 0.918479 14.6016 1.25 14.6016H48.0587C48.3903 14.6016 48.7082 14.7333 48.9426 14.9677C49.1771 15.2021 49.3087 15.52 49.3087 15.8516V42.6441C49.3087 42.9756 49.1771 43.2935 48.9426 43.5279C48.7082 43.7624 48.3903 43.8941 48.0587 43.8941ZM2.5 41.3941H46.8087V17.1016H2.5V41.3941Z" fill="#1C1C1B"/>
<path d="M40.0004 40.1081H9.31664C8.98512 40.1081 8.66718 39.9764 8.43276 39.742C8.19834 39.5076 8.06664 39.1896 8.06664 38.8581C8.06565 38.1928 7.80084 37.5551 7.33031 37.0848C6.85977 36.6145 6.22191 36.35 5.55664 36.3494C5.22512 36.3494 4.90718 36.2177 4.67276 35.9833C4.43834 35.7488 4.30664 35.4309 4.30664 35.0994V23.4006C4.30664 23.0691 4.43834 22.7512 4.67276 22.5167C4.90718 22.2823 5.22512 22.1506 5.55664 22.1506C6.22203 22.1496 6.85988 21.8849 7.33038 21.4144C7.80088 20.9439 8.06565 20.306 8.06664 19.6406C8.06664 19.3091 8.19834 18.9912 8.43276 18.7567C8.66718 18.5223 8.98512 18.3906 9.31664 18.3906H40.0004C40.3319 18.3906 40.6499 18.5223 40.8843 18.7567C41.1187 18.9912 41.2504 19.3091 41.2504 19.6406C41.251 20.3044 41.5143 20.9409 41.9827 21.4112C42.4512 21.8815 43.0866 22.1473 43.7504 22.1506C44.0819 22.1506 44.3999 22.2823 44.6343 22.5167C44.8687 22.7512 45.0004 23.0691 45.0004 23.4006V35.0994C45.0004 35.4309 44.8687 35.7488 44.6343 35.9833C44.3999 36.2177 44.0819 36.3494 43.7504 36.3494C43.0852 36.35 42.4475 36.6146 41.9772 37.0849C41.5068 37.5552 41.2423 38.193 41.2416 38.8581C41.2416 39.1881 41.1112 39.5048 40.8786 39.7389C40.6461 39.9731 40.3304 40.1058 40.0004 40.1081ZM38.9141 37.6081C39.1377 36.7426 39.5877 35.9523 40.218 35.3185C40.8484 34.6847 41.6362 34.2302 42.5004 34.0019V24.4919C41.6339 24.2665 40.8432 23.8139 40.2102 23.1809C39.5771 22.5478 39.1245 21.7571 38.8991 20.8906H10.4079C10.1828 21.7572 9.73029 22.548 9.09716 23.1811C8.46403 23.8143 7.67326 24.2668 6.80664 24.4919V34.0019C7.67376 34.2276 8.46481 34.681 9.09795 35.315C9.73109 35.949 10.1833 36.7407 10.4079 37.6081H38.9141Z" fill="#1C1C1B"/>
<path d="M24.6549 36.1374C23.2921 36.1377 21.9597 35.7337 20.8264 34.9767C19.6932 34.2196 18.8099 33.1435 18.2883 31.8844C17.7667 30.6253 17.6302 29.2398 17.8961 27.9031C18.162 26.5664 18.8184 25.3386 19.7822 24.375C20.7459 23.4114 21.9738 22.7553 23.3106 22.4896C24.6473 22.2239 26.0328 22.3607 27.2918 22.8825C28.5508 23.4043 29.6268 24.2878 30.3836 25.4212C31.1405 26.5546 31.5442 27.8871 31.5437 29.2499C31.5407 31.0759 30.8139 32.8262 29.5226 34.1173C28.2314 35.4083 26.4809 36.1348 24.6549 36.1374ZM24.6549 24.8587C23.7867 24.8584 22.9378 25.1157 22.2158 25.5978C21.4937 26.08 20.9308 26.7655 20.5983 27.5675C20.2658 28.3696 20.1786 29.2523 20.3478 30.1039C20.5169 30.9555 20.9348 31.7379 21.5486 32.352C22.1624 32.9661 22.9445 33.3844 23.796 33.5541C24.6475 33.7237 25.5302 33.637 26.3325 33.305C27.1348 32.9729 27.8205 32.4105 28.3031 31.6887C28.7857 30.9669 29.0434 30.1182 29.0437 29.2499C29.043 28.0859 28.5805 26.9698 27.7577 26.1465C26.9348 25.3232 25.8189 24.86 24.6549 24.8587Z" fill="#1C1C1B"/>
<path d="M51.0241 36.7368C50.7034 36.7369 50.3949 36.6136 50.1625 36.3926C49.9301 36.1716 49.7916 35.8697 49.7755 35.5494C49.7595 35.2291 49.8671 34.9148 50.0763 34.6717C50.2854 34.4286 50.58 34.2751 50.8991 34.2431L52.3416 34.0918L49.8041 9.93307L9.56286 14.1581C9.233 14.1927 8.90288 14.0949 8.64514 13.8861C8.38739 13.6774 8.22313 13.3748 8.18849 13.0449C8.15384 12.7151 8.25165 12.385 8.46041 12.1272C8.66916 11.8695 8.97175 11.7052 9.30161 11.6706L50.7816 7.31557C50.945 7.29824 51.1101 7.31328 51.2676 7.35983C51.4252 7.40637 51.572 7.48351 51.6997 7.58683C51.8274 7.69015 51.9335 7.81763 52.0119 7.96197C52.0903 8.10632 52.1395 8.2647 52.1566 8.42806L54.9554 35.0743C54.9727 35.2377 54.9576 35.4028 54.9111 35.5604C54.8646 35.7179 54.7874 35.8647 54.6841 35.9924C54.5808 36.1201 54.4533 36.2262 54.309 36.3046C54.1646 36.383 54.0062 36.4322 53.8429 36.4493L51.1566 36.7318C51.1116 36.7343 51.0679 36.7368 51.0241 36.7368Z" fill="#1C1C1B"/>
<path d="M56.7093 29.3108C56.3984 29.3105 56.0987 29.1944 55.8688 28.9851C55.6389 28.7758 55.4953 28.4884 55.4659 28.1789C55.4366 27.8694 55.5236 27.56 55.71 27.3112C55.8965 27.0624 56.1689 26.892 56.4743 26.8333L57.288 26.6771L52.7105 2.81957L13.5343 10.3346C13.3728 10.3655 13.2069 10.3644 13.0459 10.3312C12.8849 10.298 12.732 10.2334 12.5959 10.1411C12.3212 9.95474 12.1317 9.66687 12.0693 9.34082C12.0383 9.17938 12.0395 9.01342 12.0727 8.85242C12.1059 8.69143 12.1704 8.53855 12.2627 8.40251C12.355 8.26647 12.4732 8.14994 12.6105 8.05957C12.7478 7.9692 12.9016 7.90676 13.063 7.87582L53.468 0.125822C53.7934 0.0635245 54.1302 0.132931 54.4044 0.318795C54.6786 0.504658 54.8678 0.791776 54.9305 1.11707L59.978 27.4308C60.0403 27.7564 59.9707 28.0933 59.7846 28.3676C59.5985 28.6418 59.311 28.8309 58.9855 28.8933L56.9455 29.2846C56.8677 29.3006 56.7886 29.3094 56.7093 29.3108Z" fill="#1C1C1B"/>
</svg>
