<svg width="97" height="97" viewBox="0 0 97 97" fill="none" xmlns="http://www.w3.org/2000/svg">
<path d="M0 10C0 4.47715 4.47715 0 10 0H87C92.5229 0 97 4.47715 97 10V87C97 92.5229 92.5229 97 87 97H10C4.47715 97 0 92.5229 0 87V10Z" fill="black"/>
<path d="M29 83C32.3137 83 35 80.3137 35 77C35 73.6863 32.3137 71 29 71C25.6863 71 23 73.6863 23 77C23 80.3137 25.6863 83 29 83Z" fill="#D6B5B0"/>
<path d="M69 83C72.3137 83 75 80.3137 75 77C75 73.6863 72.3137 71 69 71C65.6863 71 63 73.6863 63 77C63 80.3137 65.6863 83 69 83Z" fill="#D6B5B0"/>
<path d="M35 77C35.0016 78.3022 34.5795 79.5695 33.7974 80.6107C33.0154 81.6519 31.9159 82.4104 30.6648 82.7717C29.4138 83.133 28.0791 83.0775 26.8624 82.6136C25.6457 82.1497 24.6129 81.3025 23.92 80.2C24.8343 80.747 25.8778 81.0406 26.9432 81.0507C28.0086 81.0609 29.0574 80.7871 29.982 80.2576C30.9065 79.7281 31.6734 78.962 32.2038 78.038C32.7343 77.114 33.0091 76.0654 33 75C33.0014 73.8679 32.6824 72.7585 32.08 71.8C32.9778 72.337 33.7196 73.0994 34.2318 74.0115C34.744 74.9237 35.0088 75.9539 35 77ZM75 77C75.0016 78.3022 74.5795 79.5695 73.7974 80.6107C73.0154 81.6519 71.9159 82.4104 70.6648 82.7717C69.4138 83.133 68.0792 83.0775 66.8624 82.6136C65.6457 82.1497 64.6129 81.3025 63.92 80.2C65.0804 80.8371 66.4189 81.0725 67.727 80.8697C69.0351 80.6668 70.2395 80.037 71.1524 79.0785C72.0653 78.1199 72.6356 76.8863 72.7745 75.5698C72.9133 74.2534 72.6129 72.9279 71.92 71.8C72.8476 72.3167 73.6214 73.0703 74.1625 73.9839C74.7037 74.8974 74.9926 75.9382 75 77Z" fill="#BF9E99"/>
<path d="M49 23C42.1044 23 35.4912 25.7393 30.6152 30.6152C25.7393 35.4912 23 42.1044 23 49V65C23 65.5304 23.2107 66.0391 23.5858 66.4142C23.9609 66.7893 24.4696 67 25 67H73C73.5304 67 74.0391 66.7893 74.4142 66.4142C74.7893 66.0391 75 65.5304 75 65V49C75 45.5856 74.3275 42.2047 73.0209 39.0502C71.7142 35.8958 69.7991 33.0295 67.3848 30.6152C64.9705 28.2009 62.1042 26.2858 58.9498 24.9791C55.7953 23.6725 52.4144 23 49 23Z" fill="#FFFF00" fill-opacity="0.09"/>
<path d="M55 47.26H45C44.4696 47.26 43.9609 47.0493 43.5858 46.6742C43.2107 46.2991 43 45.7904 43 45.26V37.26C43 36.7296 43.2107 36.2209 43.5858 35.8458C43.9609 35.4707 44.4696 35.26 45 35.26H55C55.5304 35.26 56.0391 35.4707 56.4142 35.8458C56.7893 36.2209 57 36.7296 57 37.26V45.26C57 45.7904 56.7893 46.2991 56.4142 46.6742C56.0391 47.0493 55.5304 47.26 55 47.26ZM47 43.26H53V39.26H47V43.26Z" fill="black"/>
<path d="M61.96 43.26H37.96C36.8554 43.26 35.96 44.1554 35.96 45.26V65.26C35.96 66.3646 36.8554 67.26 37.96 67.26H61.96C63.0646 67.26 63.96 66.3646 63.96 65.26V45.26C63.96 44.1554 63.0646 43.26 61.96 43.26Z" fill="black"/>
<path d="M49 23C43.3789 23.0101 37.9125 24.8416 33.42 28.22C37.3689 25.9213 41.8539 24.7039 46.4231 24.6904C50.9923 24.6769 55.4844 25.8677 59.4468 28.143C63.4093 30.4182 66.7021 33.6976 68.9937 37.6506C71.2853 41.6036 72.4947 46.0908 72.5 50.66V66.66C72.5097 66.7731 72.5097 66.8869 72.5 67H73C73.5304 67 74.0391 66.7893 74.4142 66.4142C74.7893 66.0391 75 65.5304 75 65V49C75 45.5856 74.3275 42.2047 73.0209 39.0502C71.7142 35.8958 69.7991 33.0295 67.3848 30.6152C64.9705 28.2009 62.1042 26.2858 58.9498 24.9791C55.7953 23.6725 52.4144 23 49 23Z" fill="black"/>
<path d="M54 47H44C43.4696 47 42.9609 46.7893 42.5858 46.4142C42.2107 46.0391 42 45.5304 42 45V37C42 36.4696 42.2107 35.9609 42.5858 35.5858C42.9609 35.2107 43.4696 35 44 35H54C54.5304 35 55.0391 35.2107 55.4142 35.5858C55.7893 35.9609 56 36.4696 56 37V45C56 45.5304 55.7893 46.0391 55.4142 46.4142C55.0391 46.7893 54.5304 47 54 47ZM46 43H52V39H46V43Z" fill="#798BC6"/>
<path d="M54 35H44C43.6074 35.0003 43.2236 35.1162 42.8964 35.3331C42.5692 35.5501 42.3131 35.8585 42.16 36.22C42.3527 36.1495 42.555 36.109 42.76 36.1H52.76C53.2904 36.1 53.7991 36.3107 54.1742 36.6858C54.5493 37.0609 54.76 37.5696 54.76 38.1V46.1C54.7622 46.3705 54.7005 46.6378 54.58 46.88C54.9852 46.7573 55.341 46.5091 55.5962 46.1713C55.8514 45.8334 55.9928 45.4233 56 45V37C56 36.4696 55.7893 35.9609 55.4142 35.5858C55.0391 35.2107 54.5304 35 54 35Z" fill="#667DBA"/>
<path d="M61 43H37C35.8954 43 35 43.8954 35 45V65C35 66.1046 35.8954 67 37 67H61C62.1046 67 63 66.1046 63 65V45C63 43.8954 62.1046 43 61 43Z" fill="#FFFD5F"/>
<path d="M61 43H37C36.5377 42.9887 36.0857 43.138 35.7211 43.4224C35.3564 43.7068 35.1016 44.1088 35 44.56H59C59.5304 44.56 60.0391 44.7707 60.4142 45.1458C60.7893 45.5209 61 46.0296 61 46.56V66.56C61.0113 66.7064 61.0113 66.8536 61 67C61.5304 67 62.0391 66.7893 62.4142 66.4142C62.7893 66.0391 63 65.5304 63 65V45C63 44.4696 62.7893 43.9609 62.4142 43.5858C62.0391 43.2107 61.5304 43 61 43Z" fill="#293C66"/>
<path d="M77 63H21C19.8954 63 19 63.8954 19 65V73C19 74.1046 19.8954 75 21 75H77C78.1046 75 79 74.1046 79 73V65C79 63.8954 78.1046 63 77 63Z" fill="#FFD599"/>
<path d="M77 63H21C20.5206 62.9938 20.055 63.1601 19.6879 63.4684C19.3208 63.7768 19.0767 64.2067 19 64.68H75C75.5304 64.68 76.0391 64.8907 76.4142 65.2658C76.7893 65.6409 77 66.1496 77 66.68V74.68C77.0113 74.7864 77.0113 74.8936 77 75C77.5304 75 78.0391 74.7893 78.4142 74.4142C78.7893 74.0391 79 73.5304 79 73V65C79 64.4696 78.7893 63.9609 78.4142 63.5858C78.0391 63.2107 77.5304 63 77 63Z" fill="#7C8087"/>
</svg>
