<svg width="82" height="78" viewBox="0 0 82 78" fill="none" xmlns="http://www.w3.org/2000/svg">
<path d="M50.218 40.8778C50.218 39.6178 49.588 38.4838 48.58 37.8538C49.588 37.2238 50.218 36.0898 50.218 34.7668C50.218 33.1288 49.084 31.6798 47.572 31.2388L43.918 26.1988C44.548 26.0098 44.989 25.3798 44.989 24.6868V21.9778C44.989 21.0958 44.296 20.3398 43.351 20.3398H33.586C32.704 20.3398 31.948 21.0328 31.948 21.9778V24.6868C31.948 25.3798 32.389 26.0098 33.019 26.1988L29.302 31.2388C28.672 31.4278 28.168 31.7428 27.727 32.1838C27.034 32.8768 26.656 33.8218 26.656 34.7668C26.656 36.0268 27.349 37.1608 28.294 37.8538C28.105 37.9798 27.916 38.1058 27.727 38.2948C27.034 38.9878 26.656 39.9328 26.656 40.8778C26.656 42.1378 27.286 43.2718 28.294 43.9018C28.105 44.0278 27.916 44.2168 27.727 44.4058C27.034 45.0988 26.656 45.9808 26.656 46.9888C26.656 48.1858 27.223 49.2568 28.105 49.8868C27.223 50.4538 26.656 51.3988 26.656 52.5328V55.6828C26.656 58.3918 28.861 60.6598 31.633 60.6598H45.178C47.887 60.6598 50.155 58.4548 50.155 55.6828V52.5328C50.155 51.3988 49.588 50.4538 48.706 49.8868C49.588 49.1938 50.155 48.1858 50.155 46.9888C50.155 45.7288 49.525 44.5948 48.517 43.9648C49.588 43.2718 50.218 42.1378 50.218 40.8778ZM28.672 33.0658C28.987 32.7508 29.428 32.4988 29.869 32.4358C29.995 32.3728 30.184 32.3098 30.247 32.1838L34.531 26.3248H42.469L46.753 32.1838C46.816 32.3098 47.005 32.3728 47.131 32.4358C48.265 32.6878 49.021 33.6958 49.021 34.8298C49.021 36.1528 47.95 37.2238 46.627 37.2238H30.436C29.113 37.2238 28.042 36.1528 28.042 34.8298C27.979 34.1368 28.231 33.5698 28.672 33.0658ZM38.5 53.8558C36.295 53.8558 34.531 52.0918 34.531 49.8868C34.531 48.6268 35.917 46.4218 37.051 44.9098C37.744 43.9648 39.193 43.9648 39.886 44.9098C41.02 46.4848 42.406 48.6268 42.406 49.8868C42.469 52.0918 40.642 53.8558 38.5 53.8558Z" fill="black"/>
</svg>
